<svg width="210" height="50" viewBox="0 0 210 50" fill="none" xmlns="http://www.w3.org/2000/svg">
<path d="M62.8977 17.2326L70.6817 37.1256H67.3739L65.5705 32.5138L65.5427 32.4429H56.9634L55.2186 37.1287H51.8923L59.3371 17.2357H62.9008L62.8977 17.2326ZM64.3343 29.3571L61.27 21.53L61.1436 21.2063L58.1749 29.1783L58.1102 29.3571H64.3343Z" fill="white"/>
<path d="M98.67 36.9468V22.2081H95.541V32.6802L95.4979 32.7881C95.4547 32.856 94.5669 34.4775 92.6217 34.4775C90.3682 34.4775 89.3601 32.8406 89.3601 31.219V22.2081H86.265V32.3381C86.265 35.1002 88.5031 37.3383 91.2652 37.3383C93.4386 37.3383 94.8721 36.2593 95.541 35.2266V36.9499H98.67V36.9468Z" fill="white"/>
<path d="M78.8232 21.9277C81.681 21.9277 83.4166 23.1454 84.4493 24.5419L82.3499 26.4871C81.5299 25.3311 80.4047 24.7546 78.9743 24.7546C76.2985 24.7546 74.5351 26.7615 74.5351 29.6223C74.5351 32.4831 76.2985 34.5177 78.9743 34.5177C80.4047 34.5177 81.5299 33.9104 82.3499 32.7852L84.4493 34.7304C83.4166 36.13 81.681 37.3446 78.8232 37.3446C74.3533 37.3446 71.2181 34.0892 71.2181 29.6192C71.2181 25.1492 74.3502 21.9246 78.8232 21.9246V21.9277Z" fill="white"/>
<path d="M157.424 22.2299H154.385V36.9099H157.424V22.2299Z" fill="white"/>
<path d="M154.083 18.0373V17.5563C154.083 16.6253 154.647 15.9471 155.92 15.9471C157.193 15.9471 157.726 16.6253 157.726 17.5563V18.0373C157.726 18.9682 157.19 19.6464 155.92 19.6464C154.65 19.6464 154.083 18.9682 154.083 18.0373Z" fill="white"/>
<path d="M148.423 18.5336H145.383V22.2206H143.395V24.9211H145.331L145.383 34.2125C145.383 35.72 146.604 36.9408 148.111 36.9408H150.926V34.0306H148.426V24.9211H151.413V22.2206H148.426V18.5336H148.423Z" fill="white"/>
<path d="M137.55 22.2482V24.0146C136.727 22.9357 135 21.8536 132.842 21.8536C128.702 21.8536 125.7 25.0998 125.7 29.5729C125.7 33.4633 128.141 37.4 132.808 37.4C136.098 37.4 137.553 35.1896 137.553 35.1896V36.9314H140.636V22.2482H137.553H137.55ZM133.271 34.6748C130.709 34.6748 128.85 32.56 128.85 29.6438C128.85 26.7275 130.709 24.5757 133.271 24.5757C135.506 24.5757 137.762 26.1541 137.762 29.6777C137.762 32.0853 136.357 34.6748 133.271 34.6748Z" fill="white"/>
<path d="M186.473 22.2482V24.0146C185.65 22.9357 183.924 21.8536 181.766 21.8536C177.626 21.8536 174.623 25.0998 174.623 29.5729C174.623 33.4633 177.064 37.4 181.732 37.4C185.021 37.4 186.476 35.1896 186.476 35.1896V36.9314H189.559V22.2482H186.476H186.473ZM182.194 34.6748C179.632 34.6748 177.774 32.56 177.774 29.6438C177.774 26.7275 179.632 24.5757 182.194 24.5757C184.429 24.5757 186.686 26.1541 186.686 29.6777C186.686 32.0853 185.28 34.6748 182.194 34.6748Z" fill="white"/>
<path d="M167.554 21.9277C170.412 21.9277 172.147 23.1454 173.18 24.5419L171.081 26.4871C170.261 25.3311 169.136 24.7546 167.705 24.7546C165.029 24.7546 163.266 26.7615 163.266 29.6223C163.266 32.4831 165.029 34.5177 167.705 34.5177C169.136 34.5177 170.261 33.9104 171.081 32.7852L173.18 34.7304C172.147 36.13 170.412 37.3446 167.554 37.3446C163.084 37.3446 159.949 34.0892 159.949 29.6192C159.949 25.1492 163.081 21.9246 167.554 21.9246V21.9277Z" fill="white"/>
<path d="M118.471 21.8136C116.195 21.8136 114.401 23.2656 113.649 24.6189C112.835 22.9573 111.131 21.8136 109.158 21.8136C106.984 21.8136 105.551 22.8926 104.882 23.9253V22.202H101.753V36.9407H104.882V26.4686L104.925 26.3607C104.968 26.2928 105.856 24.6713 107.801 24.6713C110.055 24.6713 111.063 26.3083 111.063 27.9298V36.9407H114.158V26.8107C114.158 26.746 114.158 26.6813 114.152 26.6165L114.195 26.4655L114.238 26.3576C114.281 26.2898 115.169 24.6682 117.114 24.6682C119.368 24.6682 120.376 26.3052 120.376 27.9267V36.9376H123.471V26.8077C123.471 24.0455 121.233 21.8074 118.471 21.8074V21.8136Z" fill="white"/>
<path d="M33.0628 13C29.7334 13 26.7154 14.3502 24.5328 16.5328C22.3502 18.7154 21 21.7304 21 25.0628C21 31.7247 26.401 37.1256 33.0628 37.1256H45.1256V25.0628C45.1256 18.401 39.7247 13 33.0628 13ZM36.7405 14.7202C40.6926 16.0889 43.6058 19.8345 43.985 23.9715C43.8833 23.7958 43.7723 23.6293 43.6644 23.4536C39.5459 17.1771 29.8074 18.7308 27.8375 25.9229C24.4558 19.9085 30.1219 12.7811 36.7405 14.7202ZM37.9027 26.5086V29.8473H34.5641C32.3106 29.8534 30.1465 28.87 28.6946 27.1313C29.2125 23.7588 31.8544 21.1508 35.2331 20.6761C36.9224 22.1435 37.9027 24.2613 37.9027 26.5055V26.5086ZM30.2144 14.4643C25.618 17.0107 24.3355 23.3087 27.5539 27.4612C27.1902 30.8769 28.9813 34.3172 31.9869 35.9881C19.8039 34.493 18.5554 17.8677 30.2174 14.4643H30.2144ZM44.0374 36.0374H36.3182C32.289 36.1237 28.6822 32.6495 28.6113 28.6234C30.2421 30.1185 32.3384 30.9355 34.5641 30.9355H38.991V26.5086C38.991 24.3075 38.1833 22.2267 36.7375 20.6206C40.2456 20.7377 43.4147 23.5708 43.9388 27.0327C44.1422 27.7571 44.0066 35.128 44.0405 36.0374H44.0374Z" fill="white"/>
</svg>
