<svg width="79" height="50" viewBox="0 0 79 50" fill="none" xmlns="http://www.w3.org/2000/svg">
<path d="M39.0628 13C35.7334 13 32.7154 14.3502 30.5328 16.5328C28.3502 18.7154 27 21.7304 27 25.0628C27 31.7247 32.401 37.1256 39.0628 37.1256H51.1256V25.0628C51.1256 18.401 45.7247 13 39.0628 13ZM42.7405 14.7202C46.6926 16.0889 49.6058 19.8345 49.985 23.9715C49.8833 23.7958 49.7723 23.6293 49.6644 23.4536C45.5459 17.1771 35.8074 18.7308 33.8375 25.9229C30.4558 19.9085 36.1219 12.7811 42.7405 14.7202ZM43.9027 26.5086V29.8473H40.5641C38.3106 29.8534 36.1465 28.87 34.6946 27.1313C35.2125 23.7588 37.8544 21.1508 41.2331 20.6761C42.9224 22.1435 43.9027 24.2613 43.9027 26.5055V26.5086ZM36.2144 14.4643C31.618 17.0107 30.3355 23.3087 33.5539 27.4612C33.1902 30.8769 34.9813 34.3172 37.9869 35.9881C25.8039 34.493 24.5554 17.8677 36.2174 14.4643H36.2144ZM50.0374 36.0374H42.3182C38.289 36.1237 34.6822 32.6495 34.6113 28.6234C36.2421 30.1185 38.3384 30.9355 40.5641 30.9355H44.991V26.5086C44.991 24.3075 44.1833 22.2267 42.7375 20.6206C46.2456 20.7377 49.4147 23.5708 49.9388 27.0327C50.1422 27.7571 50.0066 35.128 50.0405 36.0374H50.0374Z" fill="white"/>
</svg>
