<?xml version="1.0" encoding="UTF-8"?>
<svg version="1.1" xmlns="http://www.w3.org/2000/svg" xmlns:xlink="http://www.w3.org/1999/xlink">

	<symbol id="priorityHigh" viewBox="0 0 16 16">
		<path d="M1 6.22997C1 6.084 1.06378 5.94533 1.1746 5.85034L7.6746 0.278911C7.86185 0.118415 8.13815 0.118415 8.3254 0.278911L14.8254 5.85034C14.9362 5.94533 15 6.084 15 6.22997V6.91289C15 7.34007 14.4989 7.57052 14.1746 7.29252L8.3254 2.27891C8.13815 2.11842 7.86185 2.11841 7.6746 2.27891L1.8254 7.29252C1.50106 7.57052 1 7.34007 1 6.91289V6.22997Z" fill="currentColor"/>
		<path d="M1 14.23C1 14.084 1.06378 13.9453 1.1746 13.8503L7.6746 8.27891C7.86185 8.11842 8.13815 8.11841 8.3254 8.27891L14.8254 13.8503C14.9362 13.9453 15 14.084 15 14.23V14.9129C15 15.3401 14.4989 15.5705 14.1746 15.2925L8.3254 10.2789C8.13815 10.1184 7.86185 10.1184 7.6746 10.2789L1.8254 15.2925C1.50106 15.5705 1 15.3401 1 14.9129V14.23Z" fill="currentColor"/>
		<path d="M1 10.23C1 10.084 1.06378 9.94533 1.1746 9.85034L7.6746 4.27891C7.86185 4.11842 8.13815 4.11841 8.3254 4.27891L14.8254 9.85034C14.9362 9.94533 15 10.084 15 10.23V10.9129C15 11.3401 14.4989 11.5705 14.1746 11.2925L8.3254 6.27891C8.13815 6.11842 7.86185 6.11841 7.6746 6.27891L1.8254 11.2925C1.50106 11.5705 1 11.3401 1 10.9129V10.23Z" fill="currentColor"/>
	</symbol>
	<symbol id="priorityMedium" viewBox="0 0 16 16">
		<path d="M1 12.23C1 12.084 1.06378 11.9453 1.1746 11.8503L7.6746 6.27891C7.86185 6.11842 8.13815 6.11841 8.3254 6.27891L14.8254 11.8503C14.9362 11.9453 15 12.084 15 12.23V12.9129C15 13.3401 14.4989 13.5705 14.1746 13.2925L8.3254 8.27891C8.13815 8.11842 7.86185 8.11841 7.6746 8.27891L1.8254 13.2925C1.50106 13.5705 1 13.3401 1 12.9129V12.23Z" fill="currentColor"/>
		<path d="M1 8.22997C1 8.084 1.06378 7.94533 1.1746 7.85034L7.6746 2.27891C7.86185 2.11842 8.13815 2.11841 8.3254 2.27891L14.8254 7.85034C14.9362 7.94533 15 8.084 15 8.22997V8.91289C15 9.34007 14.4989 9.57052 14.1746 9.29252L8.3254 4.27891C8.13815 4.11842 7.86185 4.11841 7.6746 4.27891L1.8254 9.29252C1.50106 9.57052 1 9.34007 1 8.91289V8.22997Z" fill="currentColor"/>
	</symbol>
	<symbol id="priorityLow" viewBox="0 0 16 16">
		<path d="M15 5.77003C15 5.916 14.9362 6.05467 14.8254 6.14966L8.3254 11.7211C8.13815 11.8816 7.86185 11.8816 7.6746 11.7211L1.1746 6.14966C1.06378 6.05467 1 5.916 1 5.77003V5.08711C1 4.65993 1.50106 4.42948 1.8254 4.70748L7.6746 9.72109C7.86185 9.88158 8.13815 9.88159 8.3254 9.72109L14.1746 4.70748C14.4989 4.42948 15 4.65993 15 5.08711V5.77003Z" fill="currentColor"/>
	</symbol>
	<symbol id="priorityDarkHigh" viewBox="0 0 16 16">
		<g clip-path="url(#clip0_1267_8826)">
		<path d="M0 6.55206C0 5.89347 0.324234 5.27709 0.866942 4.90398L6.86694 0.778976C7.54945 0.309755 8.45055 0.309756 9.13306 0.778977L15.1331 4.90398C15.6758 5.27709 16 5.89347 16 6.55206V14.26C16 15.221 15.221 16 14.26 16C13.7636 16 13.2776 15.8585 12.8588 15.592L8.53688 12.8416C8.20931 12.6332 7.79069 12.6332 7.46312 12.8416L3.1412 15.592C2.72243 15.8585 2.23635 16 1.73998 16C0.779014 16 0 15.221 0 14.26V6.55206Z" fill="white" fill-opacity="0.9"/>
		<path d="M1 14.3444C1 14.1298 1.10916 13.9298 1.28973 13.8137L7.72962 9.67381C7.89433 9.56793 8.10568 9.56793 8.27038 9.67381L14.7103 13.8137C14.8908 13.9298 15 14.1298 15 14.3444C15 14.8436 14.4478 15.145 14.028 14.8751L8.27038 11.1738C8.10567 11.0679 7.89432 11.0679 7.72962 11.1738L1.97204 14.8751C1.55218 15.145 1 14.8436 1 14.3444Z" fill="currentColor"/>
		<path d="M1 10.3444C1 10.1298 1.10916 9.92983 1.28973 9.81375L7.72962 5.67381C7.89433 5.56793 8.10568 5.56793 8.27038 5.67381L14.7103 9.81375C14.8908 9.92983 15 10.1298 15 10.3444C15 10.8436 14.4478 11.145 14.028 10.8751L8.27038 7.17381C8.10567 7.06793 7.89432 7.06793 7.72962 7.17381L1.97204 10.8751C1.55218 11.145 1 10.8436 1 10.3444Z" fill="currentColor"/>
		<path d="M1 6.34443C1 6.12977 1.10916 5.92983 1.28973 5.81375L7.72962 1.67381C7.89433 1.56793 8.10568 1.56793 8.27038 1.67381L14.7103 5.81375C14.8908 5.92983 15 6.12977 15 6.34443C15 6.84357 14.4478 7.14503 14.028 6.87512L8.27038 3.17381C8.10567 3.06793 7.89432 3.06793 7.72962 3.17381L1.97204 6.87512C1.55218 7.14503 1 6.84357 1 6.34443Z" fill="currentColor"/>
		</g>
		<defs>
		<clipPath id="clip0_1267_8826">
		<rect width="16" height="16" fill="white"/>
		</clipPath>
		</defs>
	</symbol>
	<symbol id="priorityDarkMedium" viewBox="0 0 16 16">
		<path d="M0 8.12488C0 7.53814 0.257645 6.981 0.704702 6.601L6.7047 1.501C7.45156 0.866167 8.54844 0.866168 9.2953 1.501L15.2953 6.601C15.7424 6.981 16 7.53814 16 8.12488V12.6763C16 13.5178 15.3178 14.2 14.4763 14.2C13.8456 14.2 13.2349 13.9783 12.7511 13.5737L8.64155 10.1366C8.27023 9.82601 7.72977 9.82601 7.35844 10.1366L3.24886 13.5737C2.76507 13.9783 2.15444 14.2 1.52375 14.2C0.682204 14.2 0 13.5178 0 12.6763V8.12488Z" fill="white" fill-opacity="0.9"/>
		<path d="M1 12.322C1 12.1176 1.08929 11.9235 1.24445 11.7905L7.6746 6.27891C7.86185 6.11842 8.13815 6.11841 8.3254 6.27891L14.7556 11.7905C14.9107 11.9235 15 12.1176 15 12.322V12.478C15 13.0761 14.2985 13.3987 13.8444 13.0095L8.3254 8.27891C8.13815 8.11842 7.86185 8.11841 7.6746 8.27891L2.15555 13.0095C1.70148 13.3987 1 13.0761 1 12.478V12.322Z" fill="currentColor"/>
		<path d="M1 8.32195C1 8.11761 1.08929 7.92346 1.24445 7.79047L7.6746 2.27891C7.86185 2.11842 8.13815 2.11841 8.3254 2.27891L14.7556 7.79047C14.9107 7.92346 15 8.11761 15 8.32195V8.47805C15 9.07609 14.2985 9.39873 13.8444 9.00953L8.3254 4.27891C8.13815 4.11842 7.86185 4.11841 7.6746 4.27891L2.15555 9.00953C1.70148 9.39873 1 9.07609 1 8.47805V8.32195Z" fill="currentColor"/>
	</symbol>
	<symbol id="priorityDarkLow" viewBox="0 0 16 16">
		<path d="M15.046 6.61909C15.3342 6.37211 15.5 6.01155 15.5 5.63205V5.52195C15.5 4.49673 14.2975 3.94364 13.5191 4.61085L8 9.34146L2.48095 4.61085C1.70254 3.94364 0.5 4.49673 0.5 5.52195V5.63205C0.5 6.01155 0.665831 6.37211 0.953971 6.61909L7.34921 12.1007C7.7237 12.4217 8.2763 12.4217 8.65079 12.1007L15.046 6.61909Z" stroke="white" stroke-opacity="0.9"/>
		<path d="M15 5.63205C15 5.86559 14.8979 6.08747 14.7206 6.23946L8.3254 11.7211C8.13815 11.8816 7.86185 11.8816 7.6746 11.7211L1.27937 6.23946C1.10205 6.08747 1 5.86559 1 5.63205V5.52195C1 4.92391 1.70148 4.60127 2.15555 4.99047L7.6746 9.72109C7.86185 9.88158 8.13815 9.88159 8.3254 9.72109L13.8444 4.99047C14.2985 4.60127 15 4.92391 15 5.52195V5.63205Z" fill="currentColor"/>
	</symbol>
	<symbol id="severityHigh" viewBox="0 0 16 16">
		<path d="M1 7.75C1 7.33579 1.33579 7 1.75 7H14.25C14.6642 7 15 7.33579 15 7.75C15 8.16421 14.6642 8.5 14.25 8.5H1.75C1.33579 8.5 1 8.16421 1 7.75Z" fill="currentColor"/>
		<path d="M1 3.75C1 3.33579 1.33579 3 1.75 3H14.25C14.6642 3 15 3.33579 15 3.75C15 4.16421 14.6642 4.5 14.25 4.5H1.75C1.33579 4.5 1 4.16421 1 3.75Z" fill="currentColor"/>
		<path d="M1 11.75C1 11.3358 1.33579 11 1.75 11H14.25C14.6642 11 15 11.3358 15 11.75C15 12.1642 14.6642 12.5 14.25 12.5H1.75C1.33579 12.5 1 12.1642 1 11.75Z" fill="currentColor"/>
	</symbol>
	<symbol id="severityMedium" viewBox="0 0 16 16">
		<path d="M1 5.75C1 5.33579 1.33579 5 1.75 5H14.25C14.6642 5 15 5.33579 15 5.75C15 6.16421 14.6642 6.5 14.25 6.5H1.75C1.33579 6.5 1 6.16421 1 5.75Z" fill="currentColor"/>
		<path d="M1 9.75C1 9.33579 1.33579 9 1.75 9H14.25C14.6642 9 15 9.33579 15 9.75C15 10.1642 14.6642 10.5 14.25 10.5H1.75C1.33579 10.5 1 10.1642 1 9.75Z" fill="currentColor"/>
	</symbol>
	<symbol id="severityLow" viewBox="0 0 16 16">
		<path d="M1 7.75C1 7.33579 1.33579 7 1.75 7H14.25C14.6642 7 15 7.33579 15 7.75C15 8.16421 14.6642 8.5 14.25 8.5H1.75C1.33579 8.5 1 8.16421 1 7.75Z" fill="currentColor"/>
	</symbol>
	<symbol id="severityDarkHigh" viewBox="0 0 16 16">
		<path d="M0 3C0 1.89543 0.895431 1 2 1H14C15.1046 1 16 1.89543 16 3V12.5C16 13.6046 15.1046 14.5 14 14.5H2C0.895431 14.5 0 13.6046 0 12.5V3Z" fill="white" fill-opacity="0.9"/>
		<path d="M1 7.75C1 7.33579 1.33579 7 1.75 7H14.25C14.6642 7 15 7.33579 15 7.75C15 8.16421 14.6642 8.5 14.25 8.5H1.75C1.33579 8.5 1 8.16421 1 7.75Z" fill="currentColor"/>
		<path d="M1 3.75C1 3.33579 1.33579 3 1.75 3H14.25C14.6642 3 15 3.33579 15 3.75C15 4.16421 14.6642 4.5 14.25 4.5H1.75C1.33579 4.5 1 4.16421 1 3.75Z" fill="currentColor"/>
		<path d="M1 11.75C1 11.3358 1.33579 11 1.75 11H14.25C14.6642 11 15 11.3358 15 11.75C15 12.1642 14.6642 12.5 14.25 12.5H1.75C1.33579 12.5 1 12.1642 1 11.75Z" fill="currentColor"/>
	</symbol>
	<symbol id="severityDarkMedium" viewBox="0 0 16 16">
		<path d="M0 5C0 3.89543 0.895431 3 2 3H14C15.1046 3 16 3.89543 16 5V10.5C16 11.6046 15.1046 12.5 14 12.5H2C0.895431 12.5 0 11.6046 0 10.5V5Z" fill="white" fill-opacity="0.9"/>
		<path d="M1 5.75C1 5.33579 1.33579 5 1.75 5H14.25C14.6642 5 15 5.33579 15 5.75C15 6.16421 14.6642 6.5 14.25 6.5H1.75C1.33579 6.5 1 6.16421 1 5.75Z" fill="currentColor"/>
		<path d="M1 9.75C1 9.33579 1.33579 9 1.75 9H14.25C14.6642 9 15 9.33579 15 9.75C15 10.1642 14.6642 10.5 14.25 10.5H1.75C1.33579 10.5 1 10.1642 1 9.75Z" fill="currentColor"/>
	</symbol>
	<symbol id="severityDarkLow" viewBox="0 0 16 16">
		<path d="M1.75 6.5C1.05964 6.5 0.5 7.05964 0.5 7.75C0.5 8.44036 1.05964 9 1.75 9H14.25C14.9404 9 15.5 8.44036 15.5 7.75C15.5 7.05964 14.9404 6.5 14.25 6.5H1.75Z" stroke="white" stroke-opacity="0.9"/>
		<path d="M1 7.75C1 7.33579 1.33579 7 1.75 7H14.25C14.6642 7 15 7.33579 15 7.75C15 8.16421 14.6642 8.5 14.25 8.5H1.75C1.33579 8.5 1 8.16421 1 7.75Z" fill="currentColor"/>
	</symbol>
	<symbol id="multiEmployee" viewBox="0 0 16 16">
		<path fill-rule="evenodd" clip-rule="evenodd" d="M7.9 4C7.9 5.04934 7.04934 5.9 6 5.9C4.95066 5.9 4.1 5.04934 4.1 4C4.1 2.95066 4.95066 2.1 6 2.1C7.04934 2.1 7.9 2.95066 7.9 4ZM9 4C9 5.65685 7.65685 7 6 7C4.34315 7 3 5.65685 3 4C3 2.34315 4.34315 1 6 1C7.65685 1 9 2.34315 9 4ZM5 9.2H7C8.5464 9.2 9.8 10.4536 9.8 12V13.8H2.2V12C2.2 10.4536 3.4536 9.2 5 9.2ZM1 12C1 9.79086 2.79086 8 5 8H7C9.20914 8 11 9.79086 11 12V15H1V12ZM12 5.9C12.4971 5.9 12.9 5.49706 12.9 5C12.9 4.50294 12.4971 4.1 12 4.1C11.5029 4.1 11.1 4.50294 11.1 5C11.1 5.49706 11.5029 5.9 12 5.9ZM12 7C13.1046 7 14 6.10457 14 5C14 3.89543 13.1046 3 12 3C10.8954 3 10 3.89543 10 5C10 6.10457 10.8954 7 12 7ZM12.1235 9.18714C13.4488 9.18714 14.8 10.2954 14.8 11.5V13.8H13V15H16V11.5C16 9.567 14.433 8 12.5 8H10.9787C11.3866 8.28752 11.8703 8.7713 12.1235 9.18714Z" fill="currentColor"/>
	</symbol>
	<symbol id="multiEmployeeDark" viewBox="0 0 16 16">
		<path fill-rule="evenodd" clip-rule="evenodd" d="M7.9 4C7.9 5.04934 7.04934 5.9 6 5.9C4.95066 5.9 4.1 5.04934 4.1 4C4.1 2.95066 4.95066 2.1 6 2.1C7.04934 2.1 7.9 2.95066 7.9 4ZM9 4C9 5.65685 7.65685 7 6 7C4.34315 7 3 5.65685 3 4C3 2.34315 4.34315 1 6 1C7.65685 1 9 2.34315 9 4ZM5 9.2H7C8.5464 9.2 9.8 10.4536 9.8 12V13.8H2.2V12C2.2 10.4536 3.4536 9.2 5 9.2ZM1 12C1 9.79086 2.79086 8 5 8H7C9.20914 8 11 9.79086 11 12V15H1V12ZM12 5.9C12.4971 5.9 12.9 5.49706 12.9 5C12.9 4.50294 12.4971 4.1 12 4.1C11.5029 4.1 11.1 4.50294 11.1 5C11.1 5.49706 11.5029 5.9 12 5.9ZM12 7C13.1046 7 14 6.10457 14 5C14 3.89543 13.1046 3 12 3C10.8954 3 10 3.89543 10 5C10 6.10457 10.8954 7 12 7ZM12.1235 9.18714C13.4488 9.18714 14.8 10.2954 14.8 11.5V13.8H13V15H16V11.5C16 9.567 14.433 8 12.5 8H10.9787C11.3866 8.28752 11.8703 8.7713 12.1235 9.18714Z" fill="currentColor"/>
	</symbol>
</svg>
