<?xml version="1.0" encoding="UTF-8"?>
<svg version="1.1" xmlns="http://www.w3.org/2000/svg" xmlns:xlink="http://www.w3.org/1999/xlink">
	<symbol id="spinner" stroke-width="1" viewBox="0 0 16 16">
		<g clip-path="url(#clip0)">
		<path d="M13.6569 13.6569C12.7266 14.5871 11.5812 15.2736 10.3223 15.6555C9.06332 16.0374 7.72961 16.1029 6.43928 15.8463C5.14895 15.5896 3.94183 15.0187 2.92486 14.1841C1.90788 13.3495 1.11243 12.2769 0.608966 11.0615C0.105504 9.846 -0.0904279 8.52514 0.0385242 7.21586C0.167476 5.90659 0.617333 4.64933 1.34825 3.55544C2.07916 2.46155 3.06857 1.5648 4.22883 0.94463C5.38909 0.324457 6.68439 -1.56885e-08 8 0V1.46547C6.92539 1.46547 5.86737 1.73049 4.91964 2.23706C3.97192 2.74362 3.16376 3.4761 2.56674 4.36961C1.96971 5.26311 1.60226 6.29007 1.49693 7.3595C1.3916 8.42894 1.55164 9.50785 1.96288 10.5007C2.37412 11.4935 3.02385 12.3695 3.85454 13.0513C4.68522 13.733 5.67122 14.1993 6.72518 14.409C7.77914 14.6186 8.86854 14.5651 9.89688 14.2532C10.9252 13.9412 11.8608 13.3805 12.6206 12.6206L13.6569 13.6569Z"/>
		</g>
		<defs>
			<clipPath id="clip0">
				<rect width="16" height="16" fill="white"/>
			</clipPath>
		</defs>
	</symbol>
	<symbol id="ellipsis" viewBox="0 0 17 17">
		<g clip-path="url(#clip0)">
			<path d="M0.0423661 9.05093C0.046508 8.3882 0.587113 7.85431 1.24984 7.85845V7.85845C1.91257 7.86259 2.44646 8.4032 2.44232 9.06593V9.06593C2.43818 9.72866 1.89757 10.2625 1.23484 10.2584V10.2584C0.572114 10.2543 0.0382242 9.71366 0.0423661 9.05093V9.05093Z"/>
			<path d="M6.99909 9.09347C7.00323 8.43074 7.54384 7.89685 8.20657 7.90099V7.90099C8.8693 7.90514 9.40319 8.44574 9.39905 9.10847V9.10847C9.3949 9.7712 8.8543 10.3051 8.19157 10.3009V10.3009C7.52884 10.2968 6.99495 9.7562 6.99909 9.09347V9.09347Z"/>
			<path d="M13.6423 9.13717C13.6465 8.47444 14.1871 7.94055 14.8498 7.94469V7.94469C15.5125 7.94884 16.0464 8.48944 16.0423 9.15217V9.15217C16.0382 9.8149 15.4975 10.3488 14.8348 10.3446V10.3446C14.1721 10.3405 13.6382 9.7999 13.6423 9.13717V9.13717Z"/>
		</g>
		<defs>
			<clipPath id="clip0">
				<rect width="16" height="16" fill="white" transform="translate(0.0498657 0.949829)"/>
			</clipPath>
		</defs>
	</symbol>
	<symbol id="checkmark" viewBox="0 0 20 20">
		<path d="M10 0.375C4.6375 0.375 0.375 4.6375 0.375 10C0.375 15.3625 4.6375 19.625 10 19.625C15.3625 19.625 19.625 15.3625 19.625 10C19.625 4.6375 15.3625 0.375 10 0.375ZM10 1.75C14.5375 1.75 18.25 5.4625 18.25 10C18.25 14.5375 14.5375 18.25 10 18.25C5.4625 18.25 1.75 14.5375 1.75 10C1.75 5.4625 5.4625 1.75 10 1.75ZM13.575 6.7L8.625 11.7875L6.425 9.45L5.325 10.55L8.625 13.7125L14.675 7.6625L13.575 6.7Z"/>
	</symbol>
	<symbol id="warnsign" viewBox="0 0 22 19">
		<path fill-rule="evenodd" clip-rule="evenodd" d="M19.0428 15.8464C19.3047 16.3047 18.9738 16.875 18.4459 16.875L3.55403 16.875C3.02615 16.875 2.69521 16.3047 2.95711 15.8464L10.4031 2.816C10.667 2.35413 11.333 2.35413 11.5969 2.816L19.0428 15.8464ZM9.80614 1.0892C10.334 0.165456 11.666 0.165457 12.1938 1.0892L20.8244 16.1928C21.3482 17.1095 20.6864 18.25 19.6306 18.25H2.36934C1.31359 18.25 0.651705 17.1095 1.17551 16.1928L9.80614 1.0892ZM11.4568 5.87499H10.543C10.4018 5.87499 10.2669 5.96048 10.1712 6.11077C10.0755 6.26105 10.0276 6.46241 10.0391 6.66605L10.4344 12.2501C10.4516 12.553 10.6266 12.7862 10.8368 12.7862H11.1631C11.3732 12.7862 11.5482 12.553 11.5655 12.2501L11.9607 6.66606C11.9723 6.46241 11.9244 6.26105 11.8287 6.11077C11.733 5.96048 11.5981 5.87499 11.4568 5.87499ZM10.9999 16.0503C11.5166 16.0503 11.9355 15.6193 11.9355 15.0877C11.9355 14.556 11.5166 14.125 10.9999 14.125C10.4832 14.125 10.0644 14.556 10.0644 15.0877C10.0644 15.6193 10.4832 16.0503 10.9999 16.0503Z"/>
	</symbol>
	<symbol id="filledKey" viewBox="0 0 20 20">
		<path fill-rule="evenodd" clip-rule="evenodd" d="M14.2895 6.51491C14.2894 4.14619 12.369 2.22582 9.99995 2.22544C7.63099 2.22586 5.7106 4.14626 5.7106 6.51493C5.7108 8.30323 6.81501 9.87722 8.43954 10.5111L8.43968 18.1445L10.0001 19.7049L12.6547 17.0503L11.7591 16.1547L12.6546 15.2592L11.5604 14.165L11.5604 13.942L12.6546 12.8478L11.5602 11.7534L11.5605 10.5115C13.1851 9.87753 14.2895 8.3032 14.2895 6.51491ZM9.84262 4.20397C8.9175 4.20468 8.16832 4.95386 8.16826 5.87798C8.16806 6.80317 8.91777 7.55288 9.84227 7.55221C10.767 7.5525 11.5164 6.80312 11.5165 5.87798C11.5162 4.95395 10.7669 4.20462 9.84262 4.20397Z"/>
	</symbol>
	<symbol id="grid_delete" viewBox="0 0 1024 960">
		<path d="M0 896h1024v-352c0-17.673-14.33-32-32-32s-32 14.327-32 32v32h-256v-32c0-17.673-14.33-32-32-32s-32 14.327-32 32v32h-256v-192h32c17.673 0 32-14.327 32-32s-14.327-32-32-32h-32v-192h32c17.673 0 32-14.33 32-32s-14.327-32-32-32h-416v832zM64 320v-192h256v192h-256zM704 832v-192h256v192h-256zM384 640h256v192h-256v-192zM64 832v-192h256v192h-256zM320 576h-256v-192h256v192zM587.645 372.353c14.996 14.996 39.31 14.996 54.307 0l149.344-149.339 149.338 149.339c14.995 14.996 39.309 14.996 54.304 0 15.002-14.996 15.002-39.309 0-54.305l-149.338-149.344 149.338-149.338c14.995-14.995 14.995-39.309 0-54.304-14.995-15.002-39.309-15.002-54.304 0l-149.338 149.338-149.344-149.338c-14.995-15.002-39.309-15.002-54.305 0-14.996 14.995-14.996 39.309 0 54.304l149.339 149.338-149.34 149.344c-14.996 14.996-14.996 39.309 0 54.305z" />
	</symbol>
	<symbol id="primaryKey" viewBox="0 0 14 14">
		<path d="M12.3844 7.34698C14.0593 5.67198 14.0593 2.95616 12.3843 1.28069C10.7089 -0.394118 7.99308 -0.394118 6.31818 1.28079C5.0538 2.54544 4.72161 4.43923 5.42208 6.03619L0.0245514 11.4339V13.6406H3.77877V12.3741H5.04518V10.8267L5.20293 10.669H6.75033V9.12129L7.62868 8.24326C9.22571 8.94376 11.1199 8.61151 12.3845 7.34701L12.3844 7.34698ZM6.37274 6.19038L6.24011 5.93623C5.53721 4.58913 5.77955 2.92454 6.87068 1.83319C8.24046 0.463382 10.4617 0.463382 11.832 1.83316C13.2018 3.20348 13.2018 5.42473 11.832 6.7946C10.7408 7.88582 9.07586 8.12819 7.72868 7.42529L7.47455 7.29269L5.96911 8.79763V9.88776H4.87946L4.26402 10.503V11.5929H2.99761V12.8594H0.805895V11.7575L6.37283 6.19038H6.37274ZM10.3214 4.38338C9.97243 4.73235 9.40743 4.73235 9.05852 4.38319C8.70964 4.03482 8.70964 3.46966 9.05868 3.12073C9.40714 2.77235 9.97221 2.77229 10.3214 3.12073C10.6696 3.4697 10.6696 4.03501 10.3214 4.38341L10.3214 4.38338ZM10.8741 2.56848C10.2194 1.91482 9.15989 1.91482 8.50639 2.56823C7.85205 3.22229 7.85205 4.28254 8.50624 4.93579C9.15993 5.58988 10.2197 5.58988 10.874 4.93579C11.5271 4.2822 11.5271 3.22251 10.8741 2.56851V2.56848Z"/>
	</symbol>
	<symbol id="foreignKey" viewBox="0 0 14 14">
		<path fill-rule="evenodd" clip-rule="evenodd" d="M1.2807 7.34698C-0.394177 5.67198 -0.394177 2.95617 1.28076 1.2807C2.95617 -0.394114 5.67201 -0.394114 7.34692 1.28079C8.61129 2.54545 8.94348 4.43923 8.24301 6.0362L13.6405 11.4339V13.6406H9.88632V12.3741H8.61992V10.8267L8.46217 10.669H6.91476V9.12129L6.03642 8.24326C4.43938 8.94376 2.54523 8.61148 1.2807 7.34698ZM2.79104 2.56848C3.4457 1.91482 4.5052 1.91482 5.1587 2.56823C5.81304 3.22229 5.81304 4.28254 5.15885 4.93579C4.50517 5.58989 3.44538 5.58989 2.79113 4.93579C2.13795 4.2822 2.13795 3.22248 2.79104 2.56848Z"/>
	</symbol>

	<symbol id="ladderFromWell" viewBox="0 0 69 78">
		<path d="M30.68 56.771C36.18 56.771 41.15 57.2611 45.4 58.101L42.48 64.521L25.06 56.961C26.86 56.831 28.74 56.771 30.68 56.771ZM61.2 68.3611C61.1899 68.3911 61.18 68.4311 61.17 68.461C61.12 68.591 61.08 68.721 61.02 68.841C61.0099 68.8911 60.98 68.9311 60.96 68.971C60.9 69.091 60.84 69.211 60.77 69.331C60.7599 69.3611 60.74 69.3811 60.73 69.411C59.55 71.3211 56.77 73.161 52.6899 74.651C52.6299 74.6711 52.59 74.711 52.54 74.7411C47.1899 76.6811 39.65 78.0011 30.68 78.0011C24.4399 78.0011 18.91 77.3711 14.3199 76.331C14.25 76.3011 14.2 76.2611 14.1299 76.2511C6.63995 74.541 1.46997 71.6711 0.269958 68.6911C0.259949 68.6711 0.25 68.6411 0.23999 68.6211C0.179993 68.4511 0.129944 68.281 0.0899658 68.1111C0.079956 68.0611 0.0699464 68.021 0.0599976 67.971C0.0199585 67.781 0 67.581 0 67.3811C0 67.1911 0.0199585 66.9911 0.0599976 66.791C0.0699463 66.7511 0.079956 66.711 0.0899658 66.661C0.129944 66.4911 0.179993 66.3211 0.23999 66.151C0.25 66.1311 0.259949 66.101 0.269958 66.081C1.46997 63.101 6.63995 60.231 14.1299 58.521C14.2 58.5111 14.25 58.471 14.3199 58.4411C15.61 58.151 16.98 57.8911 18.42 57.661L15.66 63.7411C15.43 64.2411 15.66 64.831 16.16 65.0611C16.29 65.1211 16.43 65.151 16.5699 65.151C16.9499 65.151 17.31 64.9311 17.48 64.5611L20.7599 57.341L20.8199 57.221C20.86 57.2611 20.9 57.291 20.9399 57.3211C21 57.3711 21.06 57.411 21.1299 57.4411L41.65 66.341L38.37 73.581C38.14 74.081 38.37 74.6711 38.87 74.901C39 74.961 39.14 74.9911 39.28 74.9911C39.66 74.9911 40.03 74.771 40.1899 74.401L47.39 58.531C49.28 58.961 51 59.471 52.54 60.031C52.59 60.0611 52.6299 60.101 52.6899 60.1211C56.77 61.6111 59.55 63.4511 60.73 65.3611C60.74 65.3911 60.7599 65.411 60.77 65.4411C60.84 65.5611 60.9 65.6811 60.96 65.8011C60.98 65.841 61.0099 65.8811 61.02 65.9211C61.08 66.0511 61.12 66.1811 61.17 66.3111C61.18 66.341 61.1899 66.3811 61.2 66.411C61.3 66.731 61.35 67.0611 61.35 67.3811C61.35 67.711 61.3 68.031 61.2 68.3611Z"/>
		<path d="M68.35 9.93106C67.85 9.70108 67.2599 9.92105 67.03 10.421L64.5 16.0011L43.99 7.10104C43.86 7.04104 43.73 7.02102 43.6 7.02102L46.14 1.41104C46.37 0.911038 46.14 0.321072 45.64 0.0910307C45.14 -0.13895 44.55 0.0810209 44.3199 0.591031L19.39 55.521C20.15 55.411 20.92 55.3211 21.71 55.2411L26.22 45.3011C26.31 45.401 26.42 45.481 26.55 45.531L47.06 54.4311L46.23 56.2511C46.91 56.3811 47.58 56.531 48.23 56.6911L68.85 11.2511C69.08 10.7511 68.86 10.151 68.35 9.93106ZM47.89 52.6111L27.34 43.7011C27.23 43.651 27.11 43.6211 26.99 43.6211L32.03 32.5111C32.12 32.6111 32.23 32.6911 32.36 32.7511L52.86 41.6411L47.89 52.6111ZM53.6899 39.8211L33.16 30.911C33.04 30.8611 32.91 30.841 32.79 30.831L37.4399 20.591C37.53 20.6911 37.64 20.781 37.78 20.841L58.27 29.731L53.6899 39.8211ZM59.09 27.911L38.5699 19.0011C38.45 18.9511 38.3199 18.9311 38.1899 18.921L42.84 8.67105C42.9399 8.78103 43.05 8.87106 43.1899 8.93106L63.67 17.8211L59.09 27.911Z"/>
		<path d="M20.8199 57.221L20.7599 57.341C20.8199 57.341 20.8799 57.331 20.9399 57.3211C20.9 57.291 20.86 57.2611 20.8199 57.221Z"/>
	</symbol>
	<symbol id="fullscreen" viewBox="0 0 16 16">
		<path d="M2.5 1C1.67157 1 1 1.6707 1 2.49912C1 3.50135 1 4.76651 1 5.50178C1 5.77792 1.22386 6 1.5 6V6C1.77614 6 2 5.77614 2 5.5V3.5C2 2.67157 2.67157 2 3.5 2H5.5C5.77614 2 6 1.77614 6 1.5V1.5C6 1.22386 5.77614 1 5.5 1H2.5ZM10.4982 1C10.2221 1 10 1.22386 10 1.5V1.5C10 1.77614 10.2239 2 10.5 2H12.5C13.3284 2 14 2.67157 14 3.5V5.5C14 5.77614 14.2239 6 14.5 6V6C14.7761 6 15 5.77614 15 5.5V2.5C15 1.67157 14.3293 1 13.5009 1C12.4987 1 11.2335 1 10.4982 1ZM1.5 10C1.22386 10 1 10.2221 1 10.4982C1 11.2335 1 12.4987 1 13.5009C1 14.3293 1.67157 15 2.5 15H5.5C5.77614 15 6 14.7761 6 14.5V14.5C6 14.2239 5.77614 14 5.5 14H3.5C2.67157 14 2 13.3284 2 12.5V10.5C2 10.2239 1.77614 10 1.5 10V10ZM14.5 10C14.2239 10 14 10.2239 14 10.5V12.5C14 13.3284 13.3284 14 12.5 14H10.5C10.2239 14 10 14.2239 10 14.5V14.5C10 14.7761 10.2221 15 10.4982 15C11.2335 15 12.4987 15 13.5009 15C14.3293 15 15 14.3284 15 13.5V10.5C15 10.2239 14.7761 10 14.5 10V10Z"/>
	</symbol>
	<symbol id="external" viewBox="0 0 16 16">
		<path fill-rule="evenodd" clip-rule="evenodd" d="M14.4656 1.00019C14.4458 1.00081 14.426 1.00254 14.4064 1.00537H10.226C10.0344 1.00266 9.85618 1.10332 9.7596 1.26881C9.66301 1.43429 9.66301 1.63896 9.7596 1.80444C9.85618 1.96992 10.0344 2.07058 10.226 2.06787H13.1935L6.66283 8.59853C6.52435 8.73185 6.46868 8.92956 6.51726 9.11554C6.56583 9.30153 6.71107 9.44677 6.89706 9.49534C7.08304 9.54392 7.28075 9.48825 7.41407 9.34977L13.9447 2.81911V5.78662C13.942 5.97821 14.0427 6.15642 14.2082 6.253C14.3736 6.34959 14.5783 6.34959 14.7438 6.253C14.9093 6.15642 15.0099 5.97821 15.0072 5.78662V1.60409C15.0286 1.44929 14.9808 1.2929 14.8765 1.17656C14.7721 1.06022 14.6218 0.995716 14.4656 1.00022L14.4656 1.00019Z"/>
		<path fill-rule="evenodd" clip-rule="evenodd" d="M3.71746 3.08818C2.9191 3.17828 2.28001 3.36821 1.82281 3.82593C1.36562 4.28364 1.17777 4.92153 1.0882 5.71957C0.998599 6.51756 1 7.51944 1 8.8438C1 10.1685 0.998902 11.1707 1.09027 11.969C1.18164 12.7674 1.37391 13.4057 1.83216 13.8627C2.29041 14.3197 2.92834 14.5093 3.7258 14.5994C4.52326 14.6895 5.52307 14.6876 6.84376 14.6876C8.16461 14.6876 9.16416 14.6881 9.96172 14.5973C10.7593 14.5064 11.3984 14.3159 11.8564 13.8585C12.3143 13.4011 12.5048 12.7629 12.5962 11.9649C12.6876 11.1669 12.6875 10.1662 12.6875 8.8438C12.6902 8.65221 12.5896 8.47401 12.4241 8.37742C12.2586 8.28084 12.0539 8.28084 11.8884 8.37742C11.7229 8.47401 11.6223 8.65221 11.625 8.8438C11.625 10.1652 11.6204 11.1507 11.541 11.8445C11.4615 12.5384 11.3151 12.8975 11.1052 13.1073C10.8952 13.317 10.5361 13.463 9.84239 13.542C9.14868 13.6211 8.16374 13.6251 6.84375 13.6251C5.52359 13.6251 4.53892 13.6215 3.84511 13.5431C3.15129 13.4647 2.79201 13.3195 2.58232 13.1104C2.37264 12.9013 2.22599 12.5419 2.14653 11.8476C2.06708 11.1533 2.06249 10.1674 2.06249 8.84378C2.06249 7.5198 2.06543 6.53353 2.14342 5.83892C2.22141 5.14431 2.36693 4.78556 2.57506 4.5772C2.78319 4.36885 3.14196 4.22293 3.83678 4.14453C4.5316 4.06612 5.5184 4.06255 6.84376 4.06255C7.03535 4.06526 7.21355 3.9646 7.31014 3.79912C7.40672 3.63364 7.40672 3.42897 7.31014 3.26349C7.21355 3.098 7.03535 2.99734 6.84376 3.00005C5.51787 2.99998 4.51588 2.99808 3.71746 3.08818Z"/>
	</symbol>

	<symbol id="close" viewBox="0 0 16 16">
		<path d="M13.9936 3.12381L12.8762 2.00635L8 6.88254L3.12381 2.10793L2.10793 3.12381L6.88254 8L2.00635 12.8762L3.12381 13.9936L8 9.11746L12.8762 13.9936L13.9936 12.8762L9.11746 8L13.9936 3.12381V3.12381Z"/>
	</symbol>

	<symbol id="successCheck" viewBox="0 0 12 10">
		<path d="M4.0876 9.50005L0.0375977 5.45005L1.5001 3.98755L4.0876 6.57505L10.5001 0.0500488L11.9626 1.51255L4.0876 9.50005Z"/>
	</symbol>
	<symbol id="successCheckFilled" viewBox="0 0 22 22">
		<path d="M11 1.375C5.6375 1.375 1.375 5.6375 1.375 11C1.375 16.3625 5.6375 20.625 11 20.625C16.3625 20.625 20.625 16.3625 20.625 11C20.625 5.6375 16.3625 1.375 11 1.375ZM9.625 14.7125L6.325 11.55L7.2875 10.5875L9.625 12.7875L14.575 7.8375L15.5375 8.8L9.625 14.7125V14.7125Z"/>
	</symbol>
	<symbol id="errorExclamation" viewBox="0 0 16 16">
		<path fill-rule="evenodd" clip-rule="evenodd" d="M5.60598 2.138L2.20998 5.198C2.07798 5.294 2.00598 5.45 2.00598 5.618V10.382C2.00598 10.526 2.06598 10.67 2.18598 10.778L5.58198 13.838C5.67798 13.934 5.80998 13.994 5.95398 13.994H10.034C10.166 13.994 10.298 13.946 10.394 13.85L13.79 10.802C13.91 10.706 13.994 10.55 13.994 10.382V5.618C13.994 5.462 13.934 5.318 13.814 5.222L10.418 2.162C10.322 2.066 10.19 2.006 10.034 2.006H5.95398C5.83398 2.006 5.70198 2.054 5.60598 2.138ZM8.99998 11C8.99998 11.5523 8.55227 12 7.99998 12C7.4477 12 6.99998 11.5523 6.99998 11C6.99998 10.4477 7.4477 10 7.99998 10C8.55227 10 8.99998 10.4477 8.99998 11ZM8.99998 5C8.99998 4.44771 8.55227 4 7.99998 4C7.4477 4 6.99998 4.44771 6.99998 5V8C6.99998 8.55228 7.4477 9 7.99998 9C8.55227 9 8.99998 8.55228 8.99998 8V5Z" fill="currentColor"/>
	</symbol>
	<symbol id="warningExclamation" viewBox="0 0 16 16">
		<path fill-rule="evenodd" clip-rule="evenodd" d="M7.11956 2.63515C7.49713 1.93395 8.50293 1.93395 8.8805 2.63515L14.2063 12.5259C14.565 13.1921 14.0825 14 13.3258 14H2.67425C1.91757 14 1.43504 13.1921 1.79378 12.5259L7.11956 2.63515ZM9.00003 11C9.00003 11.5523 8.55232 12 8.00003 12C7.44775 12 7.00003 11.5523 7.00003 11C7.00003 10.4477 7.44775 10 8.00003 10C8.55232 10 9.00003 10.4477 9.00003 11ZM9.00003 6C9.00003 5.44772 8.55232 5 8.00003 5C7.44775 5 7.00003 5.44772 7.00003 6V8C7.00003 8.55228 7.44775 9 8.00003 9C8.55232 9 9.00003 8.55228 9.00003 8V6Z" fill="currentColor"/>
	</symbol>
	<symbol id="warningExclamationFilled" viewBox="0 0 22 22">
		<path fill-rule="evenodd" clip-rule="evenodd" d="M10.1196 3.01028C10.4971 2.30907 11.5029 2.30907 11.8805 3.01028L19.8313 17.776C20.19 18.4422 19.7075 19.2501 18.9508 19.2501H3.04925C2.29257 19.2501 1.81004 18.4422 2.16878 17.776L10.1196 3.01028ZM12.375 15.1251C12.375 15.8845 11.7594 16.5001 11 16.5001C10.2406 16.5001 9.62503 15.8845 9.62503 15.1251C9.62503 14.3657 10.2406 13.7501 11 13.7501C11.7594 13.7501 12.375 14.3657 12.375 15.1251ZM12.375 8.25012C12.375 7.49073 11.7594 6.87512 11 6.87512C10.2406 6.87512 9.62503 7.49073 9.62503 8.25012V11.0001C9.62503 11.7595 10.2406 12.3751 11 12.3751C11.7594 12.3751 12.375 11.7595 12.375 11.0001V8.25012Z"/>
	</symbol>

	<symbol id="plus" viewBox="0 0 15 14">
		<path d="M14.7998 7.8H8.3998V14H6.9998V7.8H0.799805V6.2H6.9998V0H8.3998V6.2H14.7998V7.8Z"/>
	</symbol>

	<symbol id="Extract" viewBox="0 0 16 16">
		<path d="M1.5 2.5V12.5C1.5 13.6046 2.39543 14.5 3.5 14.5H12.5C13.6046 14.5 14.5 13.6046 14.5 12.5V2.5M1.5 2.5H3M1.5 2.5H0M14.5 2.5H13M14.5 2.5H16" fill="none" stroke="currentColor"/>
		<path d="M10.6637 4.09724C10.868 4.283 11.1842 4.26794 11.37 4.06361C11.5557 3.85928 11.5407 3.54306 11.3363 3.3573L10.6637 4.09724ZM4.66366 3.3573C4.45933 3.54306 4.44428 3.85928 4.63003 4.06361C4.81578 4.26794 5.13201 4.283 5.33634 4.09724L4.66366 3.3573ZM8 1L8.33634 0.63003L8 0.324269L7.66366 0.63003L8 1ZM10.7094 10.9069C10.9341 11.0674 11.2464 11.0153 11.4069 10.7906C11.5674 10.5659 11.5153 10.2536 11.2906 10.0931L10.7094 10.9069ZM11.3363 3.3573L8.33634 0.63003L7.66366 1.36997L10.6637 4.09724L11.3363 3.3573ZM7.66366 0.63003L4.66366 3.3573L5.33634 4.09724L8.33634 1.36997L7.66366 0.63003ZM7.5 1C7.5 2.45094 7.37227 4.28117 7.69586 6.02854C8.02581 7.81026 8.82945 9.56406 10.7094 10.9069L11.2906 10.0931C9.67055 8.93594 8.97419 7.43974 8.67914 5.84646C8.37773 4.21883 8.5 2.54906 8.5 1H7.5Z"/>
	</symbol>
	<symbol id="Archive" viewBox="0 0 16 16">
		<path d="M1.5 2.5V12.5C1.5 13.6046 2.39543 14.5 3.5 14.5H12.5C13.6046 14.5 14.5 13.6046 14.5 12.5V2.5M1.5 2.5H3M1.5 2.5H0M14.5 2.5H13M14.5 2.5H16" fill="none" stroke="currentColor"/>
		<path d="M5.33634 7.40276C5.13201 7.217 4.81578 7.23206 4.63003 7.43639C4.44428 7.64072 4.45933 7.95694 4.66366 8.1427L5.33634 7.40276ZM11.3363 8.1427C11.5407 7.95694 11.5557 7.64072 11.37 7.43639C11.1842 7.23206 10.868 7.217 10.6637 7.40276L11.3363 8.1427ZM8 10.5L7.66366 10.87L8 11.1757L8.33634 10.87L8 10.5ZM5.29062 0.593133C5.06591 0.432629 4.75364 0.484675 4.59313 0.709381C4.43263 0.934087 4.48467 1.24636 4.70938 1.40687L5.29062 0.593133ZM4.66366 8.1427L7.66366 10.87L8.33634 10.13L5.33634 7.40276L4.66366 8.1427ZM8.33634 10.87L11.3363 8.1427L10.6637 7.40276L7.66366 10.13L8.33634 10.87ZM8.5 10.5C8.5 9.04906 8.62773 7.21883 8.30414 5.47146C7.97419 3.68974 7.17055 1.93594 5.29062 0.593133L4.70938 1.40687C6.32945 2.56406 7.02581 4.06026 7.32086 5.65354C7.62227 7.28117 7.5 8.95094 7.5 10.5H8.5Z"/>
	</symbol>
	<symbol id="eye" viewBox="0 0 16 16">
		<path fill-rule="evenodd" clip-rule="evenodd" d="M8 6C6.89543 6 6 6.89543 6 8C6 9.10457 6.89543 10 8 10C9.10457 10 10 9.10457 10 8C10 6.89543 9.10457 6 8 6ZM8 5C6.34315 5 5 6.34315 5 8C5 9.65685 6.34315 11 8 11C9.65685 11 11 9.65685 11 8C11 6.34315 9.65685 5 8 5Z"/>
		<path fill-rule="evenodd" clip-rule="evenodd" d="M1 8C1 8 3.13401 13 8 13C12.866 13 15 8 15 8C15 8 12.866 3 8 3C3.13401 3 1 8 1 8ZM1.91944 8.39323L1.91885 8.39461L1.9192 8.3938L1.91944 8.39323ZM2.11633 8C2.16046 7.91851 2.21202 7.8266 2.27112 7.72626C2.52143 7.30129 2.90055 6.73612 3.41361 6.17441C4.44247 5.048 5.9443 4 8 4C10.0557 4 11.5575 5.048 12.5864 6.17441C13.0995 6.73612 13.4786 7.30129 13.7289 7.72626C13.788 7.8266 13.8395 7.91851 13.8837 8C13.8395 8.08149 13.788 8.1734 13.7289 8.27374C13.4786 8.69871 13.0995 9.26388 12.5864 9.82559C11.5575 10.952 10.0557 12 8 12C5.9443 12 4.44247 10.952 3.41361 9.82559C2.90055 9.26388 2.52143 8.69871 2.27112 8.27374C2.21202 8.1734 2.16046 8.08149 2.11633 8ZM1.91885 7.60539L1.91872 7.6051L1.91885 7.60539Z"/>
	</symbol>
	<symbol id="eyeClosed" viewBox="0 0 16 16">
		<g clip-path="url(#clip0_1455_8302)">
		<path fill-rule="evenodd" clip-rule="evenodd" d="M8 6C6.89543 6 6 6.89543 6 8C6 9.10457 6.89543 10 8 10C9.10457 10 10 9.10457 10 8C10 6.89543 9.10457 6 8 6ZM8 5C6.34315 5 5 6.34315 5 8C5 9.65685 6.34315 11 8 11C9.65685 11 11 9.65685 11 8C11 6.34315 9.65685 5 8 5Z"/>
		<path fill-rule="evenodd" clip-rule="evenodd" d="M1 8C1 8 3.13401 13 8 13C12.866 13 15 8 15 8C15 8 12.866 3 8 3C3.13401 3 1 8 1 8ZM1.91944 8.39323L1.91885 8.39461L1.9192 8.3938L1.91944 8.39323ZM2.11633 8C2.16046 7.91851 2.21202 7.8266 2.27112 7.72626C2.52143 7.30129 2.90055 6.73612 3.41361 6.17441C4.44247 5.048 5.9443 4 8 4C10.0557 4 11.5575 5.048 12.5864 6.17441C13.0995 6.73612 13.4786 7.30129 13.7289 7.72626C13.788 7.8266 13.8395 7.91851 13.8837 8C13.8395 8.08149 13.788 8.1734 13.7289 8.27374C13.4786 8.69871 13.0995 9.26388 12.5864 9.82559C11.5575 10.952 10.0557 12 8 12C5.9443 12 4.44247 10.952 3.41361 9.82559C2.90055 9.26388 2.52143 8.69871 2.27112 8.27374C2.21202 8.1734 2.16046 8.08149 2.11633 8ZM1.91885 7.60539L1.91872 7.6051L1.91885 7.60539Z"/>
		<path d="M0.25 12.5097C0.111929 12.2705 0.193866 11.9647 0.433013 11.8267L15.1365 3.33757C15.3757 3.1995 15.6815 3.28144 15.8196 3.52058C15.9576 3.75973 15.8757 4.06552 15.6365 4.20359L0.933012 12.6927C0.693866 12.8308 0.388071 12.7488 0.25 12.5097Z"/>
		</g>
		<defs>
		<clipPath id="clip0_1455_8302">
		<rect width="16" height="16" fill="white"/>
		</clipPath>
		</defs>
	</symbol>
	<symbol id="tab_on" viewBox="0 0 16 16">
		<rect x="0.5" y="2.5" width="15" height="12" rx="3.5" fill="none" stroke="currentColor"/>
		<path fill-rule="evenodd" clip-rule="evenodd" d="M4.44043 6.68994H5.94434V6.02344H2.10596V6.68994H3.60986V11H4.44043V6.68994ZM6.9834 9.83789H8.93164L9.32471 11H10.1689L8.36084 6.02344H7.57471L5.74609 11H6.58691L6.9834 9.83789ZM7.22266 9.14404H8.6958L7.97461 7.01807H7.9541L7.22266 9.14404ZM10.7466 6.02344V11H12.623C13.1608 11 13.5824 10.8787 13.8877 10.636C14.193 10.3933 14.3457 10.0384 14.3457 9.57129C14.3457 9.2819 14.266 9.02783 14.1064 8.80908C13.9469 8.59033 13.7191 8.44792 13.4229 8.38184C13.653 8.29525 13.833 8.16309 13.9629 7.98535C14.0928 7.80762 14.1577 7.60596 14.1577 7.38037C14.1577 6.9292 14.0028 6.59025 13.6929 6.36353C13.383 6.1368 12.9523 6.02344 12.4009 6.02344H10.7466ZM11.5771 8.7373V10.3369H12.623C12.9102 10.3369 13.1312 10.2714 13.2861 10.1404C13.4411 10.0094 13.5186 9.81966 13.5186 9.57129C13.5186 9.30696 13.4536 9.10189 13.3237 8.95605C13.1938 8.81022 12.991 8.7373 12.7153 8.7373H11.5771ZM12.4932 8.11865H11.5771V6.68994H12.4009C12.7039 6.68994 12.9341 6.74976 13.0913 6.86938C13.2485 6.98901 13.3271 7.17187 13.3271 7.41797C13.3271 7.64128 13.2525 7.81388 13.1033 7.93579C12.954 8.0577 12.7507 8.11865 12.4932 8.11865Z"/>
	</symbol>
	<symbol id="tab_off" viewBox="0 0 16 16">
		<path fill-rule="evenodd" clip-rule="evenodd" d="M4.43994 6.68994H5.94385V6.02344H2.10547V6.68994H3.60938V11H4.43994V6.68994ZM6.98291 9.83789H8.93115L9.32422 11H10.1685L8.36035 6.02344H7.57422L5.74561 11H6.58643L6.98291 9.83789ZM7.22217 9.14404H8.69531L7.97412 7.01807H7.95361L7.22217 9.14404ZM10.7461 6.02344V11H12.6226C13.1603 11 13.5819 10.8787 13.8872 10.636C14.1925 10.3933 14.3452 10.0384 14.3452 9.57129C14.3452 9.2819 14.2655 9.02783 14.106 8.80908C13.9465 8.59033 13.7186 8.44792 13.4224 8.38184C13.6525 8.29525 13.8325 8.16309 13.9624 7.98535C14.0923 7.80762 14.1572 7.60596 14.1572 7.38037C14.1572 6.9292 14.0023 6.59025 13.6924 6.36353C13.3825 6.1368 12.9518 6.02344 12.4004 6.02344H10.7461ZM11.5767 8.7373V10.3369H12.6226C12.9097 10.3369 13.1307 10.2714 13.2856 10.1404C13.4406 10.0094 13.5181 9.81966 13.5181 9.57129C13.5181 9.30696 13.4531 9.10189 13.3232 8.95605C13.1934 8.81022 12.9906 8.7373 12.7148 8.7373H11.5767ZM12.4927 8.11865H11.5767V6.68994H12.4004C12.7035 6.68994 12.9336 6.74976 13.0908 6.86938C13.248 6.98901 13.3267 7.17187 13.3267 7.41797C13.3267 7.64128 13.252 7.81388 13.1028 7.93579C12.9535 8.0577 12.7502 8.11865 12.4927 8.11865Z"/>
		<rect x="0.822266" y="12.0664" width="16" height="1" rx="0.5" transform="rotate(-30 0.822266 12.0664)"/>
		<rect x="0.5" y="2.5" width="15" height="12" rx="3.5" fill="none" stroke="currentColor"/>
	</symbol>
	<symbol id="pinned" viewBox="0 0 16 16">
		<path d="M10.1211 3.05108L7.29267 5.87951L5.45419 6.02093C4.8885 6.02093 4.46424 5.87951 3.75713 6.58662L3.05003 7.29372L5.5249 9.7686L2.69647 12.597L3.40358 13.3041L6.23201 10.4757L8.70688 12.9506L9.41399 12.2435C10.1211 11.5364 9.90896 11.1828 9.97967 10.5464L10.1211 8.70794L12.9495 5.87951C13.8688 5.38454 14.3637 4.4653 13.6566 3.75819C13.6566 3.75819 12.5253 2.62682 12.2424 2.34398C11.5353 1.63687 10.6161 2.13184 10.1211 3.05108Z"/>
	</symbol>
	<symbol id="unpinned" viewBox="0 0 16 16">
		<path d="M6 3V7L4.8 8.4C4.4 8.8 4 9 4 10V11H7.5V15H8.5V11H12V10C12 9 11.6 8.9 11.2 8.4L10 7V3C10.3 2 10 1 9 1C9 1 7.4 1 7 1C6 1 5.7 2 6 3ZM7.2 2C7.3 2 8.8 2 8.8 2C9.2 2 9.1 2.3 9 2.7V7.3L10.5 8.9C10.8 9.2 11 9.4 11 9.8V10H5V9.8C5 9.4 5.3 9.2 5.5 8.9L7 7.3V2.7C6.9 2.3 6.8 2 7.2 2Z"/>
	</symbol>
	<symbol id="recycle" viewBox="0 0 16 16">
		<path fill-rule="evenodd" clip-rule="evenodd" d="M6.5 1C5.7 1 5 1.7 5 2.5V3H2V4H3V14.5C3 15.3 3.7 16 4.5 16H11.5C12.3 16 13 15.3 13 14.5V4H14V3H11V2.5C11 1.7 10.3 1 9.5 1H6.5ZM6.5 2H9.5C9.8 2 10 2.2 10 2.5V3H6V2.5C6 2.2 6.2 2 6.5 2ZM12 4H4V14.5C4 14.8 4.2 15 4.5 15H11.5C11.8 15 12 14.8 12 14.5V4ZM6 6V13H7V6H6ZM9 13V6H10V13H9Z"/>
	</symbol>
	<symbol id="arrorRight" viewBox="0 0 16 16">
		<path d="M7 12.9L11.1 8.8H2V7.3H11.1L7 3L8 2L14 8L8 14L7 12.9Z"/>
	</symbol>
	<symbol id="pencil" viewBox="0 0 16 16">
		<path fill-rule="evenodd" clip-rule="evenodd" d="M1 15H4.1137L13.536 5.36424C14.16 4.72741 14.1539 3.70663 13.5222 3.07736L12.9161 2.47354C12.2857 1.84558 11.2674 1.84168 10.6322 2.46477L1 11.8952V15ZM9.86355 4.61674C10.2486 4.23976 10.8631 4.2357 11.2532 4.60755L11.3607 4.71012C11.764 5.09462 11.7753 5.73459 11.3857 6.133L3.69353 14H2V12.3151L9.86355 4.61674Z"/>
	</symbol>
	<symbol id="grabber" viewBox="0 0 16 16">
		<rect x="5" y="7" width="2" height="2" rx="1"/>
		<rect x="5" y="12" width="2" height="2" rx="1"/>
		<rect x="5" y="2" width="2" height="2" rx="1"/>
		<rect x="9" y="7" width="2" height="2" rx="1"/>
		<rect x="9" y="12" width="2" height="2" rx="1"/>
		<rect x="9" y="2" width="2" height="2" rx="1"/>
	</symbol>
	<symbol id="setting" viewBox="0 0 16 16">
		<path fill-rule="evenodd" clip-rule="evenodd" d="M9.01281 1.00006H6.98938C6.83381 0.998748 6.69785 1.1048 6.66125 1.256C6.5324 1.81401 6.44394 2.38058 6.39656 2.9513C6.11124 3.0437 5.83396 3.1593 5.5675 3.29693L4.30969 2.31256C4.23872 2.25833 4.15181 2.22911 4.0625 2.22943C3.75187 2.22943 2.53125 3.55943 2.3125 3.8613C2.26161 3.92299 2.23309 4.00009 2.23156 4.08005C2.23562 4.15422 2.26407 4.22497 2.3125 4.2813C2.64937 4.69254 2.96875 5.1016 3.28813 5.5391C3.14381 5.80656 3.02516 6.08708 2.93375 6.37691L1.24719 6.6416C1.10293 6.68661 1.00346 6.81864 1 6.96972V8.99315C1.00287 9.14833 1.11273 9.28089 1.26469 9.31252L2.93375 9.5597C3.0276 9.87271 3.15293 10.1754 3.30781 10.4631C3.14923 10.6865 2.98153 10.8979 2.81548 11.1072L2.81547 11.1072L2.81545 11.1072C2.65625 11.3079 2.49856 11.5066 2.35187 11.7122C2.30335 11.7746 2.27785 11.8519 2.27969 11.9309C2.27619 12.0089 2.29848 12.0857 2.34312 12.1497C2.79539 12.7064 3.2993 13.2191 3.84812 13.6809C3.90553 13.7412 3.98379 13.7772 4.06687 13.7816C4.1469 13.7804 4.22411 13.7518 4.28562 13.7006L5.59375 12.7119C5.8574 12.8467 6.13177 12.9593 6.41406 13.0487L6.67 14.7266C6.69559 14.8834 6.8305 14.9989 6.98938 15H9.01281C9.16838 15.0013 9.30434 14.8953 9.34094 14.7441C9.46979 14.186 9.55825 13.6195 9.60563 13.0487C9.89095 12.9564 10.1682 12.8408 10.4347 12.7031L11.6925 13.6875C11.7621 13.7363 11.8439 13.7651 11.9288 13.7706C12.2394 13.7706 13.46 12.4319 13.6788 12.1388C13.7345 12.0798 13.7645 12.0011 13.7619 11.92C13.7569 11.8388 13.7245 11.7616 13.67 11.7013C13.3331 11.2922 13.0138 10.8897 12.6944 10.4434C12.8372 10.178 12.9565 9.90062 13.0509 9.61439L14.7375 9.35846C14.8882 9.31962 14.9952 9.18591 15 9.03033V7.00691C14.9971 6.85172 14.8873 6.71916 14.7353 6.68753L13.0662 6.4316C12.9705 6.12277 12.8453 5.82389 12.6922 5.5391C12.8508 5.31575 13.0185 5.10437 13.1845 4.89507L13.1845 4.89506C13.3437 4.69439 13.5014 4.49562 13.6481 4.29005C13.6967 4.22761 13.7221 4.15035 13.7203 4.0713C13.7233 3.99887 13.7009 3.92767 13.6569 3.87005C13.2067 3.3049 12.7043 2.78344 12.1562 2.31256C12.0959 2.25801 12.0187 2.22561 11.9375 2.22068C11.8553 2.22116 11.7766 2.25419 11.7188 2.31256L10.4062 3.28818C10.1426 3.15339 9.86822 3.04071 9.58594 2.9513L9.34094 1.2735C9.31484 1.1134 9.17499 0.996863 9.01281 1.00006ZM8.73063 3.08255L8.54688 1.87506V1.87287H7.41375C7.35939 2.17394 7.32302 2.49099 7.28744 2.80111L7.2825 2.84412L7.25844 3.04974C7.2191 3.39089 6.98383 3.67749 6.65688 3.78255C6.4175 3.86053 6.18486 3.95783 5.96125 4.07349C5.65853 4.2303 5.29229 4.197 5.02281 3.98817L4.08 3.25755C3.83281 3.47849 3.5025 3.81755 3.26844 4.07567L3.36848 4.20342C3.5794 4.47251 3.79386 4.74612 4.00344 5.04254C4.19478 5.31234 4.21763 5.66698 4.0625 5.9591C3.94539 6.17996 3.84945 6.41141 3.77594 6.65035C3.67594 6.96974 3.4025 7.20412 3.07156 7.25409L1.875 7.43347V8.52721L3.06063 8.69346C3.39801 8.74361 3.6755 8.98524 3.77156 9.31252C3.84857 9.57247 3.95192 9.82387 4.08 10.0628C4.23659 10.3575 4.21199 10.7155 4.01656 10.9859C3.83938 11.2309 3.65563 11.4716 3.47844 11.6903L3.2925 11.9266C3.53094 12.1956 3.83063 12.4756 4.11281 12.7338L5.05562 12.0184C5.32455 11.8138 5.68731 11.7823 5.9875 11.9375C6.20759 12.0496 6.4366 12.1433 6.67219 12.2175C6.9884 12.3192 7.21973 12.5912 7.26937 12.9197L7.45312 14.1272H8.58187C8.63623 13.8261 8.67261 13.5091 8.70819 13.1989L8.71313 13.1559L8.73719 12.9503C8.77653 12.6092 9.0118 12.3226 9.33875 12.2175C9.57812 12.1395 9.81076 12.0422 10.0344 11.9266C10.3381 11.7694 10.7055 11.8036 10.975 12.0141L11.9091 12.7447C12.1562 12.5216 12.4887 12.1803 12.7272 11.9178C12.4844 11.6181 12.2306 11.2922 11.9856 10.94C11.796 10.6671 11.7773 10.3103 11.9375 10.0191C12.0557 9.79987 12.1545 9.57078 12.2328 9.33439C12.3389 9.02688 12.6068 8.80361 12.9284 8.75471L14.125 8.57315V7.4794L12.935 7.29784C12.6024 7.24678 12.3285 7.00949 12.2306 6.68753C12.1512 6.42778 12.0464 6.17647 11.9178 5.93723C11.7612 5.64259 11.7858 5.28455 11.9812 5.0141C12.1584 4.76911 12.3422 4.52848 12.5194 4.30973L12.7031 4.07567C12.4647 3.80442 12.1672 3.52224 11.8916 3.2663L10.94 3.9838C10.6716 4.18596 10.3111 4.21656 10.0125 4.06255C9.79234 3.95118 9.56333 3.85825 9.32781 3.78474C9.0116 3.683 8.78027 3.41099 8.73063 3.08255ZM11.2091 8.00003C11.2091 9.77233 9.77232 11.2091 8 11.2091C6.22818 11.2079 4.79214 9.77183 4.79094 8.00003C4.79094 6.22772 6.22768 4.79098 8 4.79098C9.77232 4.79098 11.2091 6.22772 11.2091 8.00003ZM5.66594 8.00003C5.66594 9.28909 6.71093 10.3341 8 10.3341C9.28807 10.3317 10.3317 9.28809 10.3341 8.00003C10.3341 6.71097 9.28907 5.66598 8 5.66598C6.71093 5.66598 5.66594 6.71097 5.66594 8.00003Z"/>
	</symbol>
	<symbol id="files" viewBox="0 0 16 16">
		<path d="M12 11C12 13.2 10.2 15 8 15C5.8 15 4 13.2 4 11V4C4 2.3 5.3 1 7 1C8.7 1 10 2.3 10 4V11C10 12.1 9.1 13 8 13C6.9 13 6 12.1 6 11V5H7V11C7 11.6 7.4 12 8 12C8.6 12 9 11.6 9 11V4C9 2.9 8.1 2 7 2C5.9 2 5 2.9 5 4V11C5 12.7 6.3 14 8 14C9.7 14 11 12.7 11 11V5H12V11Z"/>
	</symbol>
	<symbol id="rowFile" viewBox="0 0 16 16">
		<path d="M2 3H14V15H2V3Z" fill="#FFD800"/>
		<path fill-rule="evenodd" clip-rule="evenodd" d="M13 4H3V14H13V4ZM2 3V15H14V3H2Z"/>
		<path fill-rule="evenodd" clip-rule="evenodd" d="M5.5 3.50047C5.5 3.50024 5.5 3.5 5 3.5C4.5 3.5 4.5 3.49975 4.5 3.49949L4.5 3.49893L4.5 3.49767L4.50002 3.49458L4.50013 3.4862L4.50077 3.46088C4.50145 3.44034 4.50274 3.41251 4.50518 3.37844C4.51003 3.31046 4.5195 3.21661 4.53805 3.1053C4.57476 2.88505 4.64911 2.58375 4.80279 2.27639C4.95744 1.96708 5.19728 1.64255 5.5664 1.39647C5.93865 1.14831 6.41251 1 7 1C7.58749 1 8.06135 1.14831 8.4336 1.39647C8.80272 1.64255 9.04256 1.96708 9.19721 2.27639C9.35089 2.58375 9.42524 2.88505 9.46195 3.1053C9.4805 3.21661 9.48997 3.31046 9.49482 3.37844C9.49726 3.41251 9.49855 3.44034 9.49923 3.46088L9.49987 3.4862L9.49998 3.49458L9.5 3.49767L9.5 3.49893L9.5 3.49949C9.5 3.49975 9.5 3.5 9 3.5H9.5V10H9C9.5 10 9.5 10.0003 9.5 10.0005L9.5 10.0011L9.5 10.0023L9.49998 10.0054L9.49987 10.0138L9.49923 10.0391C9.49855 10.0597 9.49726 10.0875 9.49482 10.1216C9.48997 10.1895 9.4805 10.2834 9.46195 10.3947C9.42524 10.6149 9.35089 10.9162 9.19721 11.2236C9.04256 11.5329 8.80272 11.8574 8.4336 12.1035C8.06135 12.3517 7.58749 12.5 7 12.5C6.41251 12.5 5.93865 12.3517 5.5664 12.1035C5.19728 11.8574 4.95744 11.5329 4.80279 11.2236C4.64911 10.9162 4.57476 10.6149 4.53805 10.3947C4.5195 10.2834 4.51003 10.1895 4.50518 10.1216C4.50274 10.0875 4.50145 10.0597 4.50077 10.0391L4.50013 10.0138L4.50002 10.0054L4.5 10.0023L4.5 10.0011L4.5 10.0005C4.5 10.0003 4.5 10 5 10H4.5V5.5H5.5V9.99783L5.50021 10.0058C5.5005 10.0146 5.50116 10.0297 5.50264 10.0503C5.50559 10.0917 5.51175 10.1541 5.52445 10.2303C5.55024 10.3851 5.60089 10.5838 5.69721 10.7764C5.79256 10.9671 5.92772 11.1426 6.1211 11.2715C6.31135 11.3983 6.58749 11.5 7 11.5C7.41251 11.5 7.68865 11.3983 7.8789 11.2715C8.07228 11.1426 8.20744 10.9671 8.30279 10.7764C8.39911 10.5838 8.44976 10.3851 8.47555 10.2303C8.48825 10.1541 8.49441 10.0917 8.49736 10.0503C8.49884 10.0297 8.4995 10.0146 8.49979 10.0058L8.5 9.99783V3.50217L8.49979 3.4942C8.4995 3.48544 8.49884 3.4703 8.49736 3.44969C8.49441 3.40829 8.48825 3.34589 8.47555 3.2697C8.44976 3.11495 8.39911 2.91625 8.30279 2.72361C8.20744 2.53292 8.07228 2.35745 7.8789 2.22853C7.68865 2.10169 7.41251 2 7 2C6.58749 2 6.31135 2.10169 6.1211 2.22853C5.92772 2.35745 5.79256 2.53292 5.69721 2.72361C5.60089 2.91625 5.55024 3.11495 5.52445 3.2697C5.51175 3.34589 5.50559 3.40829 5.50264 3.44969C5.50116 3.4703 5.5005 3.48544 5.50021 3.4942L5.5 3.50233L5.5 3.5016L5.5 3.50089L5.5 3.50047ZM5.49999 3.50252C5.49999 3.5029 5.49999 3.50283 5.5 3.50233L5.49999 3.50252Z"/>
	</symbol>
	<symbol id="rowFileEmpty" viewBox="0 0 16 16">
		<path d="M12 11C12 13.2 10.2 15 8 15C5.8 15 4 13.2 4 11V4C4 2.3 5.3 1 7 1C8.7 1 10 2.3 10 4V11C10 12.1 9.1 13 8 13C6.9 13 6 12.1 6 11V5H7V11C7 11.6 7.4 12 8 12C8.6 12 9 11.6 9 11V4C9 2.9 8.1 2 7 2C5.9 2 5 2.9 5 4V11C5 12.7 6.3 14 8 14C9.7 14 11 12.7 11 11V5H12V11Z"/>
	</symbol>
	<symbol id="note" viewBox="0 0 16 16">
		<path fill-rule="evenodd" clip-rule="evenodd" d="M3 2H9V6H13V14H3V2ZM12.6 5L10 2.4V5H12.6Z" fill="#FFD800"/>
		<path fill-rule="evenodd" clip-rule="evenodd" d="M3 1H10L14 5V14C14 14.5523 13.5523 15 13 15H3C2.44772 15 2 14.5523 2 14V2C2 1.44772 2.44772 1 3 1ZM12.6 5L10 2.4V4C10 4.55228 10.4477 5 11 5H12.6ZM13 13C13 13.5523 12.5523 14 12 14H4C3.44772 14 3 13.5523 3 13V3C3 2.44772 3.44772 2 4 2H9V5C9 5.55228 9.44772 6 10 6H13V13ZM11 11.5C11 11.2239 10.7761 11 10.5 11H5.5C5.22386 11 5 11.2239 5 11.5C5 11.7761 5.22386 12 5.5 12H10.5C10.7761 12 11 11.7761 11 11.5ZM5.5 9C5.22386 9 5 8.77614 5 8.5C5 8.22386 5.22386 8 5.5 8H10.5C10.7761 8 11 8.22386 11 8.5C11 8.77614 10.7761 9 10.5 9H5.5ZM5.5 5C5.22386 5 5 5.22386 5 5.5C5 5.77614 5.22386 6 5.5 6H6.5C6.77614 6 7 5.77614 7 5.5C7 5.22386 6.77614 5 6.5 5H5.5Z"/>
	</symbol>
	<symbol id="noteEmpty" viewBox="0 0 16 16">
		<path fill-rule="evenodd" clip-rule="evenodd" d="M10 1H3C2.44772 1 2 1.44772 2 2V14C2 14.5523 2.44772 15 3 15H13C13.5523 15 14 14.5523 14 14V5L10 1ZM10 2.4L12.6 5H11C10.4477 5 10 4.55228 10 4V2.4ZM12 14C12.5523 14 13 13.5523 13 13V6H10C9.44772 6 9 5.55228 9 5V2H4C3.44772 2 3 2.44772 3 3V13C3 13.5523 3.44772 14 4 14H12Z"/>
	</symbol>
	<symbol id="mail" viewBox="0 0 16 16">
		<path fill-rule="evenodd" clip-rule="evenodd" d="M2.5 2C1.67578 2 1 2.67578 1 3.5V11.5C1 12.3242 1.67578 13 2.5 13H13.5C14.3242 13 15 12.3242 15 11.5V3.5C15 2.67578 14.3242 2 13.5 2H2.5ZM2.5 3H13.5C13.5258 3 13.5475 3.00633 13.5695 3.01279C13.5775 3.01512 13.5855 3.01746 13.5938 3.01953L8 6.89062L2.40625 3.01953C2.41453 3.01746 2.42253 3.01512 2.43048 3.01279L2.43049 3.01279C2.45254 3.00633 2.47416 3 2.5 3ZM8 8.10938L2 3.95312V11.5C2 11.7812 2.21875 12 2.5 12H13.5C13.7812 12 14 11.7812 14 11.5V3.95312L8 8.10938Z"/>
	</symbol>
	<symbol id="treeArrowDown" viewBox="0 0 16 16" fill="currentColor">
		<path d="M12 6.96776L11.04 6L8 9.14516L4.96001 6L4 6.96776L8 11L12 6.96773V6.96776Z"/>
	</symbol>
	<symbol id="treeArrowUp" viewBox="0 0 16 16" fill="currentColor">
		<path d="M12 9.03224L11.04 10L8 6.85484L4.96001 10L4 9.03224L8 5L12 9.03227V9.03224Z"/>
	</symbol>
	<symbol id="treeArrowLeft" viewBox="0 0 16 16" fill="currentColor">
		<path d="M9.03224 4L10 4.96001L6.85484 8L10 11.04L9.03224 12L5 8L9.03227 4H9.03224Z"/>
	</symbol>
	<symbol id="treeArrowRight" viewBox="0 0 16 16" fill="currentColor">
		<path d="M6.96776 4L6 4.96001L9.14516 8L6 11.04L6.96776 12L11 8L6.96773 4H6.96776Z"/>
	</symbol>
	<symbol id="arrowLeft" viewBox="0 0 16 16" fill="currentColor">
		<g id="arrow left">
			<path id="Vector" d="M9.93056 2L11 3.1L6.23611 8L11 12.9L9.93056 14L4 8L9.93056 2Z"/>
		</g>
	</symbol>

	<symbol id="arrowRight" viewBox="0 0 16 16" fill="currentColor">
		<g id="arrow right">
			<path id="Vector" d="M6.06944 2L5 3.1L9.76389 8L5 12.9L6.06944 14L12 8L6.06944 2Z"/>
		</g>
	</symbol>

	<symbol id="plus" viewBox="0 0 16 16">
		<path d="M14.8 8.8H8.39999V15H6.99999V8.8H0.799988V7.2H6.99999V1H8.39999V7.2H14.8V8.8Z"/>
	</symbol>
	<symbol id="search" viewBox="0 0 16 16">
		<path fill-rule="evenodd" clip-rule="evenodd" d="M10.0343 9.54717H10.5763L14 12.9777L12.9777 14L9.54717 10.5763V10.0343L9.36192 9.8422C8.57976 10.5146 7.56432 10.9194 6.45969 10.9194C3.99657 10.9194 2 8.92281 2 6.45969C2 3.99657 3.99657 2 6.45969 2C8.92281 2 10.9194 3.99657 10.9194 6.45969C10.9194 7.56432 10.5146 8.57976 9.84219 9.36192L10.0343 9.54717ZM3.37222 6.45971C3.37222 8.16811 4.7513 9.54718 6.4597 9.54718C8.1681 9.54718 9.54718 8.16811 9.54718 6.45971C9.54718 4.7513 8.1681 3.37223 6.4597 3.37223C4.7513 3.37223 3.37222 4.7513 3.37222 6.45971Z"/>
	</symbol>
	<symbol id="dots" viewBox="0 0 17 16">
		<path fill-rule="evenodd" clip-rule="evenodd" d="M0.0423584 8.0584C0.0423584 7.39566 0.579616 6.8584 1.24236 6.8584C1.9051 6.8584 2.44236 7.39566 2.44236 8.0584C2.44236 8.72114 1.9051 9.2584 1.24236 9.2584C0.579616 9.2584 0.0423584 8.72114 0.0423584 8.0584ZM6.99908 8.10094C6.99908 7.4382 7.53634 6.90094 8.19908 6.90094C8.86183 6.90094 9.39908 7.4382 9.39908 8.10094C9.39908 8.76368 8.86183 9.30094 8.19908 9.30094C7.53634 9.30094 6.99908 8.76368 6.99908 8.10094ZM14.8423 6.94464C14.1796 6.94464 13.6423 7.4819 13.6423 8.14464C13.6423 8.80738 14.1796 9.34464 14.8423 9.34464C15.5051 9.34464 16.0423 8.80738 16.0423 8.14464C16.0423 7.4819 15.5051 6.94464 14.8423 6.94464Z"/>
	</symbol>
	<symbol id="pageFirst" viewBox="0 0 16 16">
		<path d="M3.1 13.6L8 8.7L12.9 13.6L14 12.5L8 6.5L2 12.5L3.1 13.6ZM14 2.5V4H2V2.5H14Z" fill="currentColor"/>
	</symbol>
	<symbol id="pageLast" viewBox="0 0 16 16">
		<path d="M2 3.6L8 9.6L14 3.6L12.9 2.5L8 7.4L3.1 2.5L2 3.6ZM2 13.5V12H14V13.5H2Z" fill="currentColor"/>
	</symbol>
	<symbol id="datePicker" viewBox="0 0 16 16">
		<path fill-rule="evenodd" clip-rule="evenodd" d="M4 1H5V2H11V1H12V2H13C14.1046 2 15 2.89543 15 4V13C15 14.1046 14.1046 15 13 15H3C1.89543 15 1 14.1046 1 13V4C1 2.89543 1.89543 2 3 2H4V1ZM3 3H13C13.5523 3 14 3.44772 14 4V5H2V4C2 3.44772 2.44772 3 3 3ZM2 6V13C2 13.5523 2.44772 14 3 14H13C13.5523 14 14 13.5523 14 13V6H2Z"/>
	</symbol>
	<symbol id="filter" viewBox="0 0 16 16">
		<path fill-rule="evenodd" clip-rule="evenodd" d="M1.10374 2.59998C0.904336 2.29998 1.00404 2.09998 1.30315 2.09998H14.6635C14.9626 2.09998 15.0623 2.39998 14.9626 2.59998L10.3762 7.59998C9.6783 8.29998 9.5 8.89998 9.5 9.89998V14.1H6.5V9.89998C6.5 8.89998 6.38806 8.29998 5.69013 7.59998L1.10374 2.59998ZM9.38465 7.11978C9.44628 7.05036 9.51094 6.97752 9.57859 6.89998L12.7691 3.39998C12.7691 3.29998 12.7691 3.09998 12.5697 3.09998H3.39694C3.19753 3.09998 3.09783 3.19998 3.29723 3.39998L6.38806 6.89998C6.98628 7.49998 7.5 8.09998 7.5 9.19998V13.1H8.5V9.19998C8.5 8.11629 8.81045 7.76659 9.38465 7.11978Z"/>
	</symbol>
	<symbol id="filterLittle" viewBox="0 0 16 16">
		<path d="M2.21654 2C2.00289 2 1.93167 2.2 2.0741 2.5L6.35009 7.5C6.84861 8.2 6.92857 8.8 6.92857 9.8V13H9.07143V9.8C9.07143 8.8 9.19878 8.2 9.6973 7.5L13.9733 2.5C14.0445 2.3 13.9733 2 13.7596 2L2.21654 2Z"/>
	</symbol>
	<symbol id="dots" viewBox="0 0 17 16">
		<path fill-rule="evenodd" clip-rule="evenodd" d="M0.0423584 8.0584C0.0423584 7.39566 0.579616 6.8584 1.24236 6.8584C1.9051 6.8584 2.44236 7.39566 2.44236 8.0584C2.44236 8.72114 1.9051 9.2584 1.24236 9.2584C0.579616 9.2584 0.0423584 8.72114 0.0423584 8.0584ZM6.99908 8.10094C6.99908 7.4382 7.53634 6.90094 8.19908 6.90094C8.86183 6.90094 9.39908 7.4382 9.39908 8.10094C9.39908 8.76368 8.86183 9.30094 8.19908 9.30094C7.53634 9.30094 6.99908 8.76368 6.99908 8.10094ZM14.8423 6.94464C14.1796 6.94464 13.6423 7.4819 13.6423 8.14464C13.6423 8.80738 14.1796 9.34464 14.8423 9.34464C15.5051 9.34464 16.0423 8.80738 16.0423 8.14464C16.0423 7.4819 15.5051 6.94464 14.8423 6.94464Z"/>
	</symbol>
	<symbol id="edit" viewBox="0 0 16 17">
		<path fill-rule="evenodd" clip-rule="evenodd" d="M1 15.2999H4.1137L13.536 5.66417C14.16 5.02734 14.1539 4.00656 13.5222 3.37728L12.9161 2.77347C12.2857 2.14551 11.2674 2.1416 10.6322 2.7647L1 12.1952V15.2999ZM9.86355 4.91666C10.2486 4.53969 10.8631 4.53562 11.2532 4.90747L11.3607 5.01005C11.764 5.39455 11.7753 6.03452 11.3857 6.43293L3.69353 14.2999H2V12.615L9.86355 4.91666Z"/>
	</symbol>
	<symbol id="advancedFilter" viewBox="0 0 16 16">
		<path fill-rule="evenodd" clip-rule="evenodd" d="M13 2H6C5.44772 2 5 2.44772 5 3V5C5 5.55228 5.44772 6 6 6H13C13.5523 6 14 5.55228 14 5V3C14 2.44772 13.5523 2 13 2ZM6 1C4.89543 1 4 1.89543 4 3V3.5H2.5C1.67157 3.5 1 4.17157 1 5V11C1 11.8284 1.67157 12.5 2.5 12.5H4V13C4 14.1046 4.89543 15 6 15H10C11.1046 15 12 14.1046 12 13V11C12 9.89543 11.1046 9 10 9H6C4.89543 9 4 9.89543 4 11V11.5H2.5C2.22386 11.5 2 11.2761 2 11V5C2 4.72386 2.22386 4.5 2.5 4.5H4V5C4 6.10457 4.89543 7 6 7H13C14.1046 7 15 6.10457 15 5V3C15 1.89543 14.1046 1 13 1H6ZM10 10H6C5.44772 10 5 10.4477 5 11V13C5 13.5523 5.44772 14 6 14H10C10.5523 14 11 13.5523 11 13V11C11 10.4477 10.5523 10 10 10Z"/>
	</symbol>
	<symbol id="handDrag" viewBox="0 0 16 16">
		<path d="M4.80218 6.66521C4.80218 6.51964 4.83278 6.37506 4.90982 6.25155C5.09419 5.95599 5.51031 5.42452 6.11871 5.42452C6.73408 5.42452 7.18653 6.0166 7.38588 6.33609C7.46572 6.46406 7.49864 6.61317 7.49864 6.764C7.49864 6.97701 7.49864 7.3301 7.49864 7.78718C7.49864 6.62577 7.33188 5.17773 8.92248 5.17773C10.5131 5.17773 10.3587 6.9199 10.3587 7.78718C10.3587 7.09198 10.1891 5.65994 11.5361 5.65994C12.8832 5.65994 12.752 6.94352 12.7232 7.78718C12.7232 6.90505 13.2778 6.46129 13.8202 6.46129C14.3626 6.46129 14.8341 6.89465 14.8341 7.71689C14.8341 8.53913 14.854 9.8889 14.7598 10.5325C14.6905 11.0056 14.0952 13.4604 13.7848 14.7272C13.6754 15.1737 13.2753 15.4854 12.8156 15.4854H5.99286C5.68577 15.4854 5.3957 15.3443 5.20613 15.1027L1.87331 10.8551C1.64307 10.5617 1.59527 10.1645 1.74931 9.82481L1.84184 9.62077C1.94649 9.39001 2.13484 9.20758 2.36882 9.11034L2.58034 9.02244C2.97192 8.85971 3.42356 8.96165 3.70728 9.27679L4.80218 10.493V6.66521Z" fill="white" stroke="currentColor" stroke-width="0.8"/>
		<path d="M7.5 9.5V13.5" stroke="currentColor" stroke-width="0.8" stroke-linecap="square"/>
		<path d="M10 9.5V13.5" stroke="currentColor" stroke-width="0.8" stroke-linecap="square"/>
		<path d="M12.5 9.5V13.5" stroke="currentColor" stroke-width="0.8" stroke-linecap="square"/>
	</symbol>
	<symbol id="sortAsc" viewBox="0 0 16 16">
		<path fill-rule="evenodd" clip-rule="evenodd" d="M1.50001 3C1.22387 3 1.00001 3.22386 1.00001 3.5C1.00001 3.77614 1.22387 4 1.50001 4H4.00001C4.27615 4 4.50001 3.77614 4.50001 3.5C4.50001 3.22386 4.27615 3 4.00001 3H1.50001ZM1.5 6C1.22386 6 1 6.22386 1 6.5C1 6.77614 1.22386 7 1.5 7H7.5C7.77614 7 8 6.77614 8 6.5C8 6.22386 7.77614 6 7.5 6H1.5ZM1.5 9C1.22386 9 1 9.22386 1 9.5C1 9.77614 1.22386 10 1.5 10H11C11.2761 10 11.5 9.77614 11.5 9.5C11.5 9.22386 11.2761 9 11 9H1.5ZM1 12.5C1 12.2239 1.22386 12 1.5 12H14.5C14.7761 12 15 12.2239 15 12.5C15 12.7761 14.7761 13 14.5 13H1.5C1.22386 13 1 12.7761 1 12.5Z"/>
	</symbol>
	<symbol id="sortDesc" viewBox="0 0 16 16">
		<path id="Combined Shape" fill-rule="evenodd" clip-rule="evenodd" d="M1.50001 13C1.22387 13 1.00001 12.7761 1.00001 12.5C1.00001 12.2239 1.22387 12 1.50001 12H4.00001C4.27615 12 4.50001 12.2239 4.50001 12.5C4.50001 12.7761 4.27615 13 4.00001 13H1.50001ZM1.5 10C1.22386 10 1 9.77614 1 9.5C1 9.22386 1.22386 9 1.5 9H7.5C7.77614 9 8 9.22386 8 9.5C8 9.77614 7.77614 10 7.5 10H1.5ZM1.5 7C1.22386 7 1 6.77614 1 6.5C1 6.22386 1.22386 6 1.5 6H11C11.2761 6 11.5 6.22386 11.5 6.5C11.5 6.77614 11.2761 7 11 7H1.5ZM1 3.5C1 3.77614 1.22386 4 1.5 4H14.5C14.7761 4 15 3.77614 15 3.5C15 3.22386 14.7761 3 14.5 3H1.5C1.22386 3 1 3.22386 1 3.5Z"/>
	</symbol>
	<symbol id="colorReset" width="16" height="16" viewBox="0 0 16 16">
		<path d="M8.31259 0.609692L8.31401 0.610827L8.31748 0.61362L8.32973 0.623548L8.37473 0.660459C8.41351 0.692523 8.4695 0.739359 8.54024 0.799991C8.68167 0.921218 8.8823 1.0978 9.12241 1.3219C9.60198 1.76951 10.2424 2.40975 10.8841 3.17984C12.1479 4.69635 13.5 6.81393 13.5 8.99993C13.5 9.68308 13.3754 10.3371 13.1478 10.9406L12.3528 10.1457C12.4489 9.77986 12.5 9.39587 12.5 8.99993C12.5 7.18593 11.3521 5.30352 10.1159 3.82002C9.50763 3.09011 8.89802 2.48036 8.44009 2.05296C8.26908 1.89335 8.11968 1.7596 8 1.65497C7.88032 1.7596 7.73092 1.89335 7.55991 2.05296C7.11836 2.46507 6.53578 3.04674 5.94936 3.74219L5.23984 3.03266C5.83946 2.32807 6.42891 1.74068 6.87759 1.3219C7.1177 1.0978 7.31833 0.921218 7.45976 0.799991C7.5305 0.739359 7.58649 0.692523 7.62527 0.660459L7.67027 0.623548L7.68252 0.61362L7.68599 0.610827L7.68705 0.609979L8 0.359619L8.31259 0.609692Z" fill="currentColor"/>
		<path fill-rule="evenodd" clip-rule="evenodd" d="M3.9904 4.69745L1.64645 2.35349C1.45118 2.15823 1.45118 1.84165 1.64645 1.64639C1.84171 1.45112 2.15829 1.45112 2.35355 1.64639L14.3536 13.6464C14.5488 13.8416 14.5488 14.1582 14.3536 14.3535C14.1583 14.5488 13.8417 14.5488 13.6464 14.3535L12.0328 12.7398C11.0283 13.8224 9.59328 14.4999 8 14.4999C4.96243 14.4999 2.5 12.0375 2.5 8.99993C2.5 7.47166 3.16088 5.97683 3.9904 4.69745ZM4.71486 5.42191C4.00934 6.55285 3.5 7.79157 3.5 8.99993C3.5 11.4852 5.51472 13.4999 8 13.4999C9.31715 13.4999 10.5021 12.934 11.3251 12.0321L4.71486 5.42191Z" fill="currentColor"/>
	</symbol>
	<symbol id="roundPlus" width="16" height="16" viewBox="0 0 16 16" fill="none">
		<path d="M8 1C4.14244 1 1 4.14244 1 8C1 11.8576 4.14244 15 8 15C11.8576 15 15 11.8576 15 8C15 4.14244 11.8576 1 8 1ZM8 2.07694C11.277 2.07694 13.9231 4.72297 13.9231 8C13.9231 11.277 11.277 13.9231 8 13.9231C4.72297 13.9231 2.07694 11.277 2.07694 8C2.07694 4.72297 4.72297 2.07694 8 2.07694ZM7.46153 5.30769V7.46153H5.30769V8.53847H7.46153V10.6923H8.53847V8.53847H10.6923V7.46153H8.53847V5.30769H7.46153Z" fill="currentColor"/>
	</symbol>
	<symbol id="doneMark" width="16" height="16" viewBox="0 0 16 16" fill="none">
		<path d="M2.1333 8.73345L3.06664 7.8001L5.86664 10.6001L12.9333 3.53345L13.8666 4.46679L5.86661 12.4668L2.1333 8.73348V8.73345Z" fill="currentColor" stroke="currentColor"/>
	</symbol>
	<symbol id="minimize" width="16" height="16" viewBox="0 0 16 16" fill="none">
		<path fill-rule="evenodd" clip-rule="evenodd" d="M7 2.00001L7 6.50001C7 6.77616 6.77614 7.00001 6.5 7.00001H2C1.72386 7.00001 1.5 6.77616 1.5 6.50001C1.5 6.22387 1.72386 6.00001 2 6.00001L5.29289 6.00001L1.14645 1.85357C0.951184 1.65831 0.951184 1.34172 1.14645 1.14646C1.34171 0.951199 1.65829 0.951199 1.85355 1.14646L6 5.29291L6 2.00001C6 1.72387 6.22386 1.50001 6.5 1.50001C6.77614 1.50001 7 1.72387 7 2.00001Z" fill="currentColor"/>
		<path fill-rule="evenodd" clip-rule="evenodd" d="M9 14L9 9.49999C9 9.22384 9.22386 8.99999 9.5 8.99999H14C14.2761 8.99999 14.5 9.22384 14.5 9.49999C14.5 9.77613 14.2761 9.99999 14 9.99999L10.7071 9.99999L14.8536 14.1464C15.0488 14.3417 15.0488 14.6583 14.8536 14.8535C14.6583 15.0488 14.3417 15.0488 14.1464 14.8535L10 10.7071L10 14C10 14.2761 9.77614 14.5 9.5 14.5C9.22386 14.5 9 14.2761 9 14Z" fill="currentColor"/>
	</symbol>

	<symbol id="minus" width="16" height="16" viewBox="0 0 16 16" fill="none">
		<rect y="7" width="16" height="2" rx="1"  fill="currentColor" />
	</symbol>

	<symbol id="print" width="16" height="16" viewBox="0 0 16 16" fill="none">
		<path fill-rule="evenodd" clip-rule="evenodd" d="M4 3C4 3.55228 3.55228 4 3 4H2C1.44772 4 1 4.44772 1 5V11C1 11.5523 1.44772 12 2 12H3C3.55228 12 4 12.4477 4 13V14C4 14.5523 4.44772 15 5 15H11C11.5523 15 12 14.5523 12 14V13C12 12.4477 12.4477 12 13 12H14C14.5523 12 15 11.5523 15 11V5C15 4.44772 14.5523 4 14 4H13C12.4477 4 12 3.55228 12 3V2C12 1.44772 11.5523 1 11 1H8H5C4.44772 1 4 1.44772 4 2V3ZM6 2C5.44772 2 5 2.44772 5 3C5 3.55228 5.44772 4 6 4H10C10.5523 4 11 3.55228 11 3C11 2.44772 10.5523 2 10 2H6ZM5 11C5 10.4477 5.44772 10 6 10H10C10.5523 10 11 10.4477 11 11V13C11 13.5523 10.5523 14 10 14H6C5.44772 14 5 13.5523 5 13V11ZM3 5C2.44772 5 2 5.44772 2 6V10C2 10.5523 2.44772 11 3 11C3.55228 11 4 10.5523 4 10C4 9.44772 4.44772 9 5 9H11C11.5523 9 12 9.44772 12 10C12 10.5523 12.4477 11 13 11C13.5523 11 14 10.5523 14 10V6C14 5.44772 13.5523 5 13 5H3ZM11 6.5C11 6.22386 11.2239 6 11.5 6H12.5C12.7761 6 13 6.22386 13 6.5C13 6.77614 12.7761 7 12.5 7H11.5C11.2239 7 11 6.77614 11 6.5ZM6.5 11C6.22386 11 6 11.2239 6 11.5C6 11.7761 6.22386 12 6.5 12H9.5C9.77614 12 10 11.7761 10 11.5C10 11.2239 9.77614 11 9.5 11H6.5Z" fill="currentColor"/>
	</symbol>

	<symbol id="carousel-arrow" width="11" height="16" viewBox="0 0 11 16" fill="none">
		<path d="M0 0L11 8L0 16V0Z" fill="white"/>
	</symbol>
	<symbol id="dragdropMarkFlat" width="23" height="14" fill="currentColor">
		<g fill="currentColor" clip-path="url(#a)"><rect width="2" height="2" x="4.5" y="8" rx="1" transform="rotate(-90 4.5 8)"/><rect width="2" height="2" x="8.5" y="8" rx="1" transform="rotate(-90 8.5 8)"/><rect width="2" height="2" x="12.5" y="8" rx="1" transform="rotate(-90 12.5 8)"/><rect width="2" height="2" x="16.5" y="8" rx="1" transform="rotate(-90 16.5 8)"/></g><defs><clipPath id="a"><path fill="#fff" d="M.5 14V0h22v14z"/></clipPath></defs>
	</symbol>

	<symbol id="changeOrientation" viewBox="0 0 16 16">
		<path fill-rule="evenodd" clip-rule="evenodd" d="M1 4V2H5V4H1ZM6 4V2H10V4H6ZM11 2V4H15V2H11ZM2 6H4V13H2V6ZM1 14V5H5V14H1ZM7 6H9V8H7V6ZM6 9V5H10V9H6ZM14 6H12V10H14V6ZM11 5V11H15V5H11Z" fill="currentColor"/>
	</symbol>
	<symbol id="aroundTheClock" viewBox="0 0 16 16">
		<path d="M7.5 4.2V1H8C11.9 1 15 4.1 15 8C15 11.9 11.9 15 8 15C4.1 15 1 11.9 1 8C1 6.7 1.4 5.4 2 4.4L3 4.9C2.4 5.8 2.1 6.9 2.1 8C2.1 11.3 4.8 13.9 8.1 13.9C11.4 13.9 14 11.3 14 8C14 4.9 11.6 2.5 8.6 2.2V4.2H7.5ZM4.3 4.5C4.4 4.3 4.6 4.2 4.8 4.2C4.9 4.2 5 4.3 5.1 4.4L8.3 7.6C8.5 7.7 8.5 7.9 8.5 8.1C8.4 8.3 8.3 8.4 8.1 8.5C8 8.6 7.8 8.5 7.6 8.3L4.4 5.1C4.2 5 4.2 4.8 4.3 4.5Z" fill="currentColor"/>
	</symbol>
	<symbol id="multiEmployee" viewBox="0 0 16 16">
		<path fill-rule="evenodd" clip-rule="evenodd" d="M7.9 4C7.9 5.04934 7.04934 5.9 6 5.9C4.95066 5.9 4.1 5.04934 4.1 4C4.1 2.95066 4.95066 2.1 6 2.1C7.04934 2.1 7.9 2.95066 7.9 4ZM9 4C9 5.65685 7.65685 7 6 7C4.34315 7 3 5.65685 3 4C3 2.34315 4.34315 1 6 1C7.65685 1 9 2.34315 9 4ZM5 9.2H7C8.5464 9.2 9.8 10.4536 9.8 12V13.8H2.2V12C2.2 10.4536 3.4536 9.2 5 9.2ZM1 12C1 9.79086 2.79086 8 5 8H7C9.20914 8 11 9.79086 11 12V15H1V12ZM12 5.9C12.4971 5.9 12.9 5.49706 12.9 5C12.9 4.50294 12.4971 4.1 12 4.1C11.5029 4.1 11.1 4.50294 11.1 5C11.1 5.49706 11.5029 5.9 12 5.9ZM12 7C13.1046 7 14 6.10457 14 5C14 3.89543 13.1046 3 12 3C10.8954 3 10 3.89543 10 5C10 6.10457 10.8954 7 12 7ZM12.1235 9.18714C13.4488 9.18714 14.8 10.2954 14.8 11.5V13.8H13V15H16V11.5C16 9.567 14.433 8 12.5 8H10.9787C11.3866 8.28752 11.8703 8.7713 12.1235 9.18714Z" fill="currentColor"/>
	</symbol>	
</svg>
