<?xml version="1.0" encoding="UTF-8"?>
<svg version="1.1" xmlns="http://www.w3.org/2000/svg" xmlns:xlink="http://www.w3.org/1999/xlink">
	<symbol id="billofmaterial" width="22" height="22" viewBox="0 0 22 22">
		<path fill-rule="evenodd" clip-rule="evenodd" d="M6.875 5.5V2.75H12.5714V5.5H6.875ZM5.5 6.875H2.75V17.9732H5.5V6.875ZM6.875 6.875H12.5714V17.9732H6.875V6.875ZM13.75 6.875V17.9732H19.4219V6.875H13.75ZM19.4219 5.5V2.75H13.75V5.5H19.4219ZM20.625 6.875V1.375H13.75H6.875H5.5H1.375V6.875V19.25H5.5H6.875H13.75H20.625V6.875Z" fill="#1B1B1B"/>
	</symbol>
	<symbol id="matlnonstockphantom" width="22" height="22" viewBox="0 0 22 22">
		<path fill-rule="evenodd" clip-rule="evenodd" d="M7.46849 7.3628C7.46849 4.09926 10.1302 1.4375 13.3938 1.4375C14.3775 1.4375 15.3091 1.68053 16.125 2.10873L17.0219 2.57164L13.1103 6.48327L14.2733 7.64634L18.185 3.7405L18.6479 4.63161C19.0761 5.44749 19.3191 6.37911 19.3191 7.3628C19.3191 10.6263 16.6573 13.2881 13.3938 13.2881C13.2289 13.2881 13.0737 13.2686 12.9186 13.249C12.8669 13.2425 12.8151 13.236 12.7631 13.2302L6.38064 19.6069C4.9456 21.0477 2.58474 21.0477 1.14971 19.6069C-0.291113 18.1719 -0.291113 15.811 1.14971 14.376C1.38567 14.1368 2.65989 12.8611 4.12306 11.3963C5.27918 10.2389 6.55326 8.96338 7.52635 7.98774C7.52083 7.93942 7.51465 7.89111 7.50844 7.84256C7.48862 7.68759 7.46849 7.53023 7.46849 7.3628ZM14.0222 3.05384C13.8199 2.98625 13.6181 2.91883 13.3938 2.91883C10.9288 2.91883 8.94981 4.89778 8.94981 7.3628C8.94981 7.62319 8.97874 7.88358 9.01925 8.14397L9.08869 8.52009L8.81672 8.79784C6.65839 10.9562 2.63682 14.9777 2.19126 15.4175C1.31751 16.297 1.31751 17.6858 2.19126 18.5653C3.0708 19.4391 4.45954 19.4391 5.33908 18.5653L12.2307 11.6679L12.6068 11.7373C12.873 11.7778 13.1334 11.8068 13.3938 11.8068C15.8588 11.8068 17.8378 9.82782 17.8378 7.3628C17.8378 7.13853 17.7703 6.93672 17.7028 6.73443C17.6675 6.62879 17.6321 6.52301 17.6063 6.41383L14.7999 9.21446L14.2733 9.74102L11.0156 6.48327L14.3428 3.15028C14.2336 3.12448 14.1278 3.08913 14.0222 3.05384ZM17.9228 13.5017C17.9308 13.5782 17.9389 13.6447 17.947 13.7011L18.5331 18.3961H19.228L19.8383 13.7192C19.8463 13.6467 19.8524 13.5722 19.8564 13.4957C19.8644 13.4151 19.8685 13.3345 19.8685 13.254C19.8685 13.0969 19.8423 12.9498 19.7899 12.8129C19.7416 12.6759 19.6711 12.5571 19.5784 12.4564C19.4898 12.3516 19.3851 12.2711 19.2642 12.2147C19.1434 12.1542 19.0145 12.124 18.8775 12.124C18.7405 12.124 18.6136 12.1542 18.4968 12.2147C18.38 12.2751 18.2773 12.3577 18.1887 12.4624C18.1041 12.5631 18.0356 12.684 17.9832 12.825C17.9349 12.9619 17.9107 13.1089 17.9107 13.2661C17.9107 13.3426 17.9147 13.4211 17.9228 13.5017ZM17.9711 20.1061C17.9188 20.227 17.8926 20.3579 17.8926 20.4989C17.8926 20.6399 17.9188 20.7728 17.9711 20.8977C18.0235 21.0186 18.096 21.1253 18.1887 21.218C18.2813 21.3106 18.3881 21.3831 18.5089 21.4355C18.6338 21.4879 18.7667 21.514 18.9077 21.514C19.0447 21.514 19.1756 21.4879 19.3005 21.4355C19.4254 21.3831 19.5341 21.3106 19.6268 21.218C19.7194 21.1253 19.7919 21.0186 19.8443 20.8977C19.9007 20.7728 19.9289 20.6399 19.9289 20.4989C19.9289 20.3579 19.9007 20.227 19.8443 20.1061C19.7919 19.9813 19.7194 19.8725 19.6268 19.7798C19.5341 19.6872 19.4254 19.6147 19.3005 19.5623C19.1796 19.5059 19.0487 19.4777 18.9077 19.4777C18.7667 19.4777 18.6338 19.5059 18.5089 19.5623C18.3881 19.6147 18.2813 19.6872 18.1887 19.7798C18.096 19.8725 18.0235 19.9813 17.9711 20.1061Z" fill="#FF0000"/>
	</symbol>
	<symbol id="matlnonstockregular" width="22" height="22" viewBox="0 0 22 22">
		<path d="M13.3938 1.4375C10.1302 1.4375 7.46849 4.09926 7.46849 7.3628C7.46849 7.58269 7.50321 7.78521 7.52635 7.98774C5.32172 10.1982 1.57212 13.9478 1.14971 14.376C-0.291113 15.811 -0.291113 18.1718 1.14971 19.6069C2.58474 21.0477 4.9456 21.0477 6.38064 19.6069L12.7631 13.2302C12.9714 13.2534 13.1739 13.2881 13.3938 13.2881C16.6573 13.2881 19.3191 10.6263 19.3191 7.3628C19.3191 6.37911 19.0761 5.44749 18.6479 4.63161L18.185 3.7405L14.2733 7.64634L13.1103 6.48327L17.0219 2.57164L16.125 2.10873C15.3091 1.68053 14.3775 1.4375 13.3938 1.4375ZM13.3938 2.91883C13.7352 2.91883 14.0245 3.07506 14.3428 3.15028L11.0156 6.48327L14.2733 9.74102L14.7999 9.21446L17.6063 6.41383C17.6815 6.73208 17.8378 7.0214 17.8378 7.3628C17.8378 9.82782 15.8588 11.8068 13.3938 11.8068C13.1334 11.8068 12.873 11.7778 12.6068 11.7373L12.2307 11.6679L5.33908 18.5653C4.45954 19.4391 3.0708 19.4391 2.19126 18.5653C1.31751 17.6858 1.31751 16.297 2.19126 15.4175C2.63682 14.9777 6.65839 10.9562 8.81672 8.79784L9.08869 8.52009L9.01925 8.14397C8.97874 7.88358 8.94981 7.62319 8.94981 7.3628C8.94981 4.89778 10.9288 2.91883 13.3938 2.91883Z" fill="#47A824"/>
	</symbol>
	<symbol id="matlnonstocksubcontract" width="22" height="22" viewBox="0 0 22 22">
		<path fill-rule="evenodd" clip-rule="evenodd" d="M7.46849 7.3628C7.46849 4.09926 10.1302 1.4375 13.3938 1.4375C14.3775 1.4375 15.3091 1.68053 16.125 2.10873L17.0219 2.57164L13.1103 6.48327L14.2733 7.64634L18.185 3.7405L18.6479 4.63161C19.0761 5.44749 19.3191 6.37911 19.3191 7.3628C19.3191 10.6263 16.6573 13.2881 13.3938 13.2881C13.2289 13.2881 13.0737 13.2686 12.9186 13.249C12.8669 13.2425 12.8151 13.236 12.7631 13.2302L6.38064 19.6069C4.9456 21.0477 2.58474 21.0477 1.14971 19.6069C-0.291113 18.1719 -0.291113 15.811 1.14971 14.376C1.38567 14.1368 2.65989 12.8611 4.12306 11.3963C5.27918 10.2389 6.55326 8.96338 7.52635 7.98774C7.52083 7.93942 7.51465 7.89111 7.50844 7.84256C7.48862 7.68759 7.46849 7.53023 7.46849 7.3628ZM14.0222 3.05384C13.8199 2.98625 13.6181 2.91883 13.3938 2.91883C10.9288 2.91883 8.94981 4.89778 8.94981 7.3628C8.94981 7.62319 8.97874 7.88358 9.01925 8.14397L9.08869 8.52009L8.81672 8.79784L8.81466 8.7999C6.65583 10.9587 2.63668 14.9779 2.19126 15.4175C1.31751 16.297 1.31751 17.6858 2.19126 18.5653C3.0708 19.4391 4.45954 19.4391 5.33908 18.5653L12.2307 11.6679L12.6068 11.7373C12.873 11.7778 13.1334 11.8068 13.3938 11.8068C15.8588 11.8068 17.8378 9.82782 17.8378 7.3628C17.8378 7.13853 17.7703 6.93672 17.7028 6.73443C17.6675 6.62879 17.6321 6.52301 17.6063 6.41383L14.7999 9.21446L14.2733 9.74102L11.0156 6.48327L14.3428 3.15028C14.2336 3.12448 14.1278 3.08913 14.0222 3.05384ZM16.9401 13.9094C16.6484 13.6663 16.2149 13.7057 15.9718 13.9974C15.7288 14.2891 15.7682 14.7226 16.0599 14.9657L18.7261 17.1875H13.75C13.3703 17.1875 13.0625 17.4953 13.0625 17.875C13.0625 18.2547 13.3703 18.5625 13.75 18.5625H18.7261L16.0599 20.7844C15.7682 21.0274 15.7288 21.461 15.9718 21.7526C16.2149 22.0443 16.6484 22.0837 16.9401 21.8407L21.6989 17.875L16.9401 13.9094Z" fill="#6920F7"/>
	</symbol>
	<symbol id="matlstockbomphantom" width="22" height="22" viewBox="0 0 22 22">
		<path fill-rule="evenodd" clip-rule="evenodd" d="M20.625 15.9628L20.4094 16.2206L20.625 15.9777V15.9628ZM0 7.48317V21.9207H17.1875L22 16.5V2.0625H5.5L0 7.48317ZM16.5 20.5457H1.375V8.17067H16.5V20.5457ZM5.91211 17.8751V10.9854H8.14447C8.99042 10.9854 9.54185 11.0198 9.79877 11.0887C10.1935 11.1921 10.5241 11.4177 10.7904 11.7655C11.0567 12.1101 11.1899 12.5566 11.1899 13.1049C11.1899 13.5279 11.1131 13.8835 10.9596 14.1718C10.8061 14.46 10.6102 14.6872 10.3721 14.8532C10.1371 15.0161 9.89746 15.1242 9.65308 15.1775C9.32096 15.2433 8.84003 15.2762 8.21027 15.2762H7.30322V17.8751H5.91211ZM7.30322 12.1509V14.106H8.06458C8.61287 14.106 8.97945 14.0699 9.16431 13.9979C9.34916 13.9258 9.49329 13.813 9.59668 13.6595C9.70321 13.506 9.75647 13.3274 9.75647 13.1237C9.75647 12.8731 9.68284 12.6663 9.53558 12.5034C9.38833 12.3404 9.2019 12.2386 8.97632 12.1979C8.81026 12.1665 8.47658 12.1509 7.97528 12.1509H7.30322Z" fill="#027ACC"/>
	</symbol>
	<symbol id="matlstockbomregular" width="22" height="22" viewBox="0 0 22 22">
		<path fill-rule="evenodd" clip-rule="evenodd" d="M20.625 15.9628L20.4094 16.2206L20.625 15.9777V15.9628ZM0 21.9207V7.48317L5.5 2.0625H22V16.5L17.1875 21.9207H0ZM1.375 20.5457H16.5V8.17067H1.375V20.5457Z" fill="#47A824"/>
	</symbol>
	<symbol id="matlstockbomsubcontract" width="22" height="22" viewBox="0 0 22 22">
		<path fill-rule="evenodd" clip-rule="evenodd" d="M20.4094 16.2206L20.625 15.9628V15.9777L20.4094 16.2206ZM0 7.48317V21.9207H17.1875L22 16.5V2.0625H5.5L0 7.48317ZM16.5 20.5457H1.375V8.17067H16.5V20.5457ZM8.69013 10.4719C8.39844 10.2288 7.96492 10.2682 7.72185 10.5599C7.47877 10.8516 7.51818 11.2851 7.80987 11.5282L10.4761 13.75H5.5C5.1203 13.75 4.8125 14.0578 4.8125 14.4375C4.8125 14.8172 5.1203 15.125 5.5 15.125H10.4761L7.80987 17.3469C7.51818 17.5899 7.47877 18.0235 7.72185 18.3151C7.96492 18.6068 8.39844 18.6462 8.69013 18.4032L13.4489 14.4375L8.69013 10.4719Z" fill="#6920F7"/>
	</symbol>
	<symbol id="matlstockphantom" width="22" height="22" viewBox="0 0 22 22">
		<path fill-rule="evenodd" clip-rule="evenodd" d="M17.875 19.0752V6.79567H2.65638L6.0637 3.4375H20.625V15.9777L17.875 19.0752ZM0 21.9207V7.48317L5.5 2.0625H22V16.5L17.1875 21.9207H0ZM1.375 20.5457H16.5V8.17067H1.375V20.5457ZM7.94385 12.2358L8.11572 14.8086C8.14795 15.1416 8.20166 15.3905 8.27686 15.5552C8.35205 15.7163 8.48633 15.7969 8.67969 15.7969C8.86947 15.7969 9.00553 15.7127 9.08789 15.5444C9.17025 15.3761 9.22396 15.1344 9.24902 14.8193L9.47998 12.1714C9.50505 11.9279 9.51758 11.688 9.51758 11.4517C9.51758 11.0506 9.46566 10.7445 9.36182 10.5332C9.25798 10.3184 9.05208 10.2109 8.74414 10.2109C8.48991 10.2109 8.28402 10.2951 8.12646 10.4634C7.97249 10.6281 7.89551 10.859 7.89551 11.1562C7.89551 11.3747 7.91162 11.7345 7.94385 12.2358ZM8.13721 18.1333C8.30192 18.2729 8.49349 18.3428 8.71191 18.3428C8.92676 18.3428 9.11475 18.2712 9.27588 18.1279C9.43701 17.9847 9.51758 17.7878 9.51758 17.5371C9.51758 17.3151 9.43701 17.1271 9.27588 16.9731C9.11833 16.8156 8.92676 16.7368 8.70117 16.7368C8.47559 16.7368 8.28402 16.8156 8.12646 16.9731C7.97249 17.1271 7.89551 17.3151 7.89551 17.5371C7.89551 17.7913 7.97607 17.9901 8.13721 18.1333Z" fill="#FF0000"/>
	</symbol>
	<symbol id="matlstockregular" width="22" height="22" viewBox="0 0 22 22">
		<path fill-rule="evenodd" clip-rule="evenodd" d="M17.875 6.79567V19.0752L20.625 15.9777V3.4375H6.0637L2.65638 6.79567H17.875ZM0 7.48317V21.9207H17.1875L22 16.5V2.0625H5.5L0 7.48317ZM16.5 20.5457H1.375V8.17067H16.5V20.5457Z" fill="#47A824"/>
	</symbol>
	<symbol id="matlstocksubcontract" width="22" height="22" viewBox="0 0 22 22">
		<path fill-rule="evenodd" clip-rule="evenodd" d="M17.875 19.0752V6.79567H2.65638L6.0637 3.4375H20.625V15.9777L17.875 19.0752ZM0 21.9207V7.48317L5.5 2.0625H22V16.5L17.1875 21.9207H0ZM1.375 20.5457H16.5V8.17067H1.375V20.5457ZM8.69013 10.4719C8.39844 10.2288 7.96492 10.2682 7.72185 10.5599C7.47877 10.8516 7.51818 11.2851 7.80987 11.5282L10.4761 13.75H5.5C5.1203 13.75 4.8125 14.0578 4.8125 14.4375C4.8125 14.8172 5.1203 15.125 5.5 15.125H10.4761L7.80987 17.3469C7.51818 17.5899 7.47877 18.0235 7.72185 18.3151C7.96492 18.6068 8.39844 18.6462 8.69013 18.4032L13.4489 14.4375L8.69013 10.4719Z" fill="#6920F7"/>
	</symbol>
	<symbol id="opexternal" width="22" height="22" viewBox="0 0 22 22">
		<g clip-path="url(#clip0_707_15417)">
			<path fill-rule="evenodd" clip-rule="evenodd" d="M2.0625 2.75H13.0625C13.4422 2.75 13.75 3.0578 13.75 3.4375C13.75 3.8172 13.4422 4.125 13.0625 4.125H2.0625C1.6828 4.125 1.375 3.8172 1.375 3.4375C1.375 3.0578 1.6828 2.75 2.0625 2.75ZM0 3.4375C0 2.29841 0.923413 1.375 2.0625 1.375H13.0625C14.2016 1.375 15.125 2.29841 15.125 3.4375C15.125 4.57659 14.2016 5.5 13.0625 5.5H2.0625C0.923413 5.5 0 4.57659 0 3.4375ZM6.1875 9.625H17.1875C17.5672 9.625 17.875 9.9328 17.875 10.3125C17.875 10.6922 17.5672 11 17.1875 11H6.1875C5.8078 11 5.5 10.6922 5.5 10.3125C5.5 9.9328 5.8078 9.625 6.1875 9.625ZM4.125 10.3125C4.125 9.17341 5.04841 8.25 6.1875 8.25H17.1875C18.3266 8.25 19.25 9.17341 19.25 10.3125C19.25 11.4516 18.3266 12.375 17.1875 12.375H6.1875C5.04841 12.375 4.125 11.4516 4.125 10.3125ZM3.4375 16.5C3.0578 16.5 2.75 16.8078 2.75 17.1875C2.75 17.5672 3.0578 17.875 3.4375 17.875H8.9375C9.3172 17.875 9.625 17.5672 9.625 17.1875C9.625 16.8078 9.3172 16.5 8.9375 16.5H3.4375ZM3.4375 15.125C2.29841 15.125 1.375 16.0484 1.375 17.1875C1.375 18.3266 2.29841 19.25 3.4375 19.25H8.9375C10.0766 19.25 11 18.3266 11 17.1875C11 16.0484 10.0766 15.125 8.9375 15.125H3.4375ZM16.9401 13.9094C16.6484 13.6663 16.2149 13.7057 15.9718 13.9974C15.7288 14.2891 15.7682 14.7226 16.0599 14.9657L18.7261 17.1875H13.75C13.3703 17.1875 13.0625 17.4953 13.0625 17.875C13.0625 18.2547 13.3703 18.5625 13.75 18.5625H18.7261L16.0599 20.7844C15.7682 21.0274 15.7288 21.461 15.9718 21.7526C16.2149 22.0443 16.6484 22.0837 16.9401 21.8407L21.6989 17.875L16.9401 13.9094Z" fill="#6920F7"/>
		</g>
		<defs>
			<clipPath id="clip0_707_15417">
				<rect width="22" height="22" fill="white"/>
			</clipPath>
		</defs>
	</symbol>
	<symbol id="opinternal" width="22" height="22" viewBox="0 0 22 22">
		<path fill-rule="evenodd" clip-rule="evenodd" d="M14.4375 2.75H3.4375C3.0578 2.75 2.75 3.0578 2.75 3.4375C2.75 3.8172 3.0578 4.125 3.4375 4.125H14.4375C14.8172 4.125 15.125 3.8172 15.125 3.4375C15.125 3.0578 14.8172 2.75 14.4375 2.75ZM3.4375 1.375C2.29841 1.375 1.375 2.29841 1.375 3.4375C1.375 4.57659 2.29841 5.5 3.4375 5.5H14.4375C15.5766 5.5 16.5 4.57659 16.5 3.4375C16.5 2.29841 15.5766 1.375 14.4375 1.375H3.4375ZM18.5625 9.625H7.5625C7.1828 9.625 6.875 9.9328 6.875 10.3125C6.875 10.6922 7.1828 11 7.5625 11H18.5625C18.9422 11 19.25 10.6922 19.25 10.3125C19.25 9.9328 18.9422 9.625 18.5625 9.625ZM7.5625 8.25C6.42341 8.25 5.5 9.17341 5.5 10.3125C5.5 11.4516 6.42341 12.375 7.5625 12.375H18.5625C19.7016 12.375 20.625 11.4516 20.625 10.3125C20.625 9.17341 19.7016 8.25 18.5625 8.25H7.5625ZM4.125 17.1875C4.125 16.8078 4.4328 16.5 4.8125 16.5H10.3125C10.6922 16.5 11 16.8078 11 17.1875C11 17.5672 10.6922 17.875 10.3125 17.875H4.8125C4.4328 17.875 4.125 17.5672 4.125 17.1875ZM2.75 17.1875C2.75 16.0484 3.67341 15.125 4.8125 15.125H10.3125C11.4516 15.125 12.375 16.0484 12.375 17.1875C12.375 18.3266 11.4516 19.25 10.3125 19.25H4.8125C3.67341 19.25 2.75 18.3266 2.75 17.1875Z" fill="black"/>
	</symbol>
</svg>