<?xml version="1.0" encoding="UTF-8"?>
<svg version="1.1" xmlns="http://www.w3.org/2000/svg" xmlns:xlink="http://www.w3.org/1999/xlink">
	<symbol id="colorText" width="16" height="16" viewBox="0 0 16 16" fill="none">
		<rect x="1" y="12" width="14" height="4" fill="currentColor"/>
		<path d="M9.50781 8.94922H5.91211L5.22852 11H3.04785L6.75293 1.04688H8.65332L12.3789 11H10.1982L9.50781 8.94922ZM6.46582 7.28809H8.9541L7.70312 3.5625L6.46582 7.28809Z" fill="#1B1B1B"/>
	</symbol> 
	<symbol id="colorBg" width="16" height="16" viewBox="0 0 16 16" fill="none">
		<rect x="2" y="12" width="13" height="4" fill="currentColor"/>
		<path d="M3 11L5.01094 9.03125L4.97902 9C4.72366 8.75 4.59598 8.45833 4.59598 8.125C4.59598 7.79167 4.72366 7.5 4.97902 7.25L10.9799 1.375C11.2353 1.125 11.5332 1 11.8737 1C12.2141 1 12.5121 1.125 12.7674 1.375L14.4272 3C14.6826 3.25 14.8103 3.54167 14.8103 3.875C14.8103 4.20833 14.6826 4.5 14.4272 4.75L8.42634 10.625C8.17098 10.875 7.87307 11 7.53259 11C7.19211 11 6.8942 10.875 6.63884 10.625L6.60692 10.5938L6.19196 11H3ZM10.7086 6.64063L9.04877 5.01562L5.88873 8.10937L7.54855 9.73438L10.7086 6.64063Z" fill="#1B1B1B"/>
	</symbol> 
</svg>
