<?xml version="1.0" encoding="UTF-8"?>
<svg version="1.1" xmlns="http://www.w3.org/2000/svg" xmlns:xlink="http://www.w3.org/1999/xlink">
	<symbol id="away" width="32" height="32" viewBox="0 0 16 16" fill="none">
		<rect width="16" height="16" rx="8" fill="#FFCC17"/>
		<path d="M8 4V8L11.5 10.5" stroke="white" stroke-width="2" stroke-linecap="round"/>
	</symbol>
	<symbol id="busy" width="32" height="32" viewBox="0 0 16 16" fill="none">
		<rect width="16" height="16" rx="8" fill="#FF0000"/>
		<path d="M4 8H12" stroke="white" stroke-width="2" stroke-linecap="round"/>
	</symbol>
	<symbol id="offline" width="32" height="32" viewBox="0 0 16 16" fill="none">
		<rect x="0.5" y="0.5" width="15" height="15" rx="7.5" fill="white" stroke="#7A7A7A"/>
		<path d="M10.8285 10.8285L5.17163 5.17163" stroke="#7A7A7A" stroke-linecap="round"/>
		<path d="M5.17164 10.8285L10.8285 5.17163" stroke="#7A7A7A" stroke-linecap="round"/>
	</symbol>
	<symbol id="available" width="32" height="32" viewBox="0 0 16 16" fill="none">
		<rect width="16" height="16" rx="8" fill="#50CC03"/>
		<path d="M6.51255 11.5L3.36255 8.35002L4.50005 7.21252L6.51255 9.22502L11.5 4.15002L12.6375 5.28752L6.51255 11.5Z" fill="white"/>
	</symbol>

	<symbol id="teams_call" viewBox="0 0 16 16">
		<path fill-rule="evenodd" clip-rule="evenodd" d="M2.59288 2.37375C3.21346 1.75605 4.0922 1.34135 4.95143 1.55713C5.1057 1.59588 5.24938 1.67965 5.36217 1.75607C5.4837 1.83841 5.61069 1.94105 5.73646 2.05315C5.98851 2.27779 6.26101 2.56318 6.51163 2.85893C6.76192 3.15431 7.00024 3.47165 7.17921 3.76264C7.26852 3.90784 7.34842 4.05512 7.40747 4.19595C7.46262 4.32747 7.51781 4.49523 7.51781 4.66887C7.51781 5.38805 7.10945 5.88821 6.82775 6.23322C6.82043 6.24219 6.8132 6.25105 6.80606 6.25981C6.48415 6.65464 6.35122 6.84891 6.36883 7.09761C6.37534 7.18956 6.45947 7.40661 6.6955 7.74432C6.91516 8.05861 7.21749 8.40985 7.5499 8.75266C7.881 9.09409 8.23279 9.41775 8.54531 9.67695C8.86752 9.94418 9.1185 10.1181 9.25326 10.1849C9.37465 10.245 9.47073 10.2422 9.59362 10.1929C9.74467 10.1321 9.91248 10.0081 10.1322 9.82087C10.17 9.78872 10.2099 9.75405 10.2516 9.71783C10.4266 9.566 10.633 9.38682 10.8405 9.25089C11.1058 9.0771 11.4559 8.91505 11.8689 8.96585C12.48 9.04105 13.1949 9.46552 13.7517 9.951C14.3044 10.4328 14.8464 11.1008 14.9603 11.7773C15.0849 12.5182 14.6425 13.3226 14.0361 13.8949C13.4053 14.4902 12.4864 14.9497 11.4346 14.9497C10.4062 14.9497 9.06503 14.4726 7.81703 13.8148C6.55592 13.1501 5.30675 12.2566 4.46236 11.3425C2.64232 9.37219 1.5 6.81542 1.5 4.93657C1.5 3.92827 1.96075 3.00294 2.59288 2.37375ZM3.29834 3.0825C2.82845 3.55021 2.5 4.22925 2.5 4.93657C2.5 6.48895 3.48877 8.81477 5.19692 10.6639C5.94393 11.4726 7.09228 12.3024 8.28332 12.9302C9.48746 13.5649 10.653 13.9497 11.4346 13.9497C12.1927 13.9497 12.8745 13.6161 13.3497 13.1676C13.8494 12.6961 14.0183 12.2058 13.9741 11.9433C13.9191 11.6164 13.5967 11.1426 13.0946 10.7048C12.5966 10.2706 12.0662 9.99767 11.7467 9.95837C11.6737 9.94938 11.5676 9.97005 11.3885 10.0874C11.243 10.1827 11.1036 10.3033 10.935 10.4493C10.8863 10.4914 10.8352 10.5357 10.7808 10.582C10.5617 10.7687 10.2845 10.9929 9.96653 11.1207C9.62035 11.2599 9.22327 11.2859 8.80948 11.081C8.56399 10.9594 8.23816 10.7214 7.90693 10.4467C7.566 10.1639 7.18771 9.81562 6.83201 9.4488C6.47764 9.08336 6.13646 8.69006 5.87585 8.31718C5.63161 7.96772 5.3987 7.55499 5.37132 7.16822C5.32341 6.49139 5.7234 6.00332 5.99372 5.67349C6.00645 5.65795 6.0189 5.64276 6.031 5.62791C6.3373 5.25223 6.51478 5.00721 6.51778 4.67738C6.51687 4.67462 6.51155 4.64533 6.48527 4.58265C6.45261 4.50475 6.40026 4.40494 6.32744 4.28654C6.18215 4.05033 5.97663 3.77441 5.7487 3.50542C5.52108 3.2368 5.28095 2.9867 5.0711 2.79967C4.96593 2.70593 4.87466 2.63368 4.80126 2.58395C4.73397 2.53836 4.70306 2.52645 4.70325 2.52593C4.70329 2.52582 4.70484 2.52626 4.70785 2.52702C4.31584 2.42857 3.77976 2.60331 3.29834 3.0825Z"/>
	</symbol>
	<symbol id="teams_chat" viewBox="0 0 16 16">
		<path fill-rule="evenodd" clip-rule="evenodd" d="M2.5 2C1.7 2 1 2.7 1 3.5V11.5C1 12.3 1.7 13 2.5 13H8.3L12 15.4V13H13.5C14.3 13 15 12.3 15 11.5V3.5C15 2.7 14.3 2 13.5 2H2.5ZM2.5 3H13.5C13.8 3 14 3.2 14 3.5V11.5C14 11.8 13.8 12 13.5 12H11V13.6L8.7 12H2.5C2.2 12 2 11.8 2 11.5V3.5C2 3.2 2.2 3 2.5 3ZM4 6V5H12V6H4ZM4 7V8H12V7H4ZM4 10V9H9V10H4Z"/>
	</symbol>
	<symbol id="teams_event" viewBox="0 0 16 16">
		<path fill-rule="evenodd" clip-rule="evenodd" d="M13 3H3C2.44772 3 2 3.44772 2 4V5H14V4C14 3.44772 13.5523 3 13 3ZM1 5V6V12C1 13.1046 1.89543 14 3 14H13C14.1046 14 15 13.1046 15 12V4C15 2.89543 14.1046 2 13 2H3C1.89543 2 1 2.89543 1 4V5ZM14 6H2V12C2 12.5523 2.44772 13 3 13H13C13.5523 13 14 12.5523 14 12V6ZM5.64844 11.9H6.80371V6.92346H6.69775L4.51367 7.67883V8.55383L5.64844 8.22229V11.9ZM9.90381 11.9L11.7632 7.5387V6.92346H8.17773V7.81213H10.5498L8.68701 11.9H9.90381Z"/>
	</symbol>
		
	<symbol id="teams_available" width="24" height="24" viewBox="0 0 32 32" fill="none">
		<g clip-path="url(#clip0_306_3890)">
		<path d="M16.7403 12.5198H22.9395C23.5252 12.5198 24 12.9946 24 13.5802V19.2269C24 21.3795 22.255 23.1244 20.1025 23.1244H20.0841C17.9316 23.1247 16.1863 21.38 16.186 19.2275C16.186 19.2273 16.186 19.2271 16.186 19.2269V13.074C16.186 12.7679 16.4342 12.5198 16.7403 12.5198Z" fill="#5059C9"/>
		<path d="M20.9302 11.4035C22.3173 11.4035 23.4418 10.279 23.4418 8.89188C23.4418 7.50474 22.3173 6.38025 20.9302 6.38025C19.5431 6.38025 18.4186 7.50474 18.4186 8.89188C18.4186 10.279 19.5431 11.4035 20.9302 11.4035Z" fill="#5059C9"/>
		<path d="M13.1163 11.4035C15.12 11.4035 16.7442 9.77926 16.7442 7.77562C16.7442 5.77198 15.12 4.14771 13.1163 4.14771C11.1127 4.14771 9.4884 5.77198 9.4884 7.77562C9.4884 9.77926 11.1127 11.4035 13.1163 11.4035Z" fill="#7B83EB"/>
		<path d="M17.9537 12.5198H7.72073C7.14202 12.5341 6.68423 13.0144 6.69766 13.5931V20.0335C6.61685 23.5063 9.36442 26.3883 12.8372 26.4733C16.31 26.3883 19.0575 23.5063 18.9767 20.0335V13.5931C18.9901 13.0144 18.5324 12.5341 17.9537 12.5198Z" fill="#7B83EB"/>
		<path opacity="0.1" d="M13.3954 12.5198V21.5449C13.3926 21.9588 13.1418 22.3306 12.7591 22.4882C12.6372 22.5397 12.5063 22.5663 12.374 22.5663H7.18885C7.11629 22.3821 7.04931 22.1979 6.99349 22.0082C6.79812 21.3677 6.69843 20.7019 6.69768 20.0323V13.5914C6.68426 13.0136 7.14129 12.5341 7.71907 12.5198H13.3954Z" fill="black"/>
		<path opacity="0.2" d="M12.8372 12.5198V22.103C12.8372 22.2353 12.8106 22.3663 12.7591 22.4882C12.6015 22.8709 12.2297 23.1217 11.8158 23.1244H7.45117C7.35629 22.9402 7.26699 22.7561 7.18885 22.5663C7.1107 22.3765 7.04931 22.1979 6.99349 22.0082C6.79812 21.3677 6.69843 20.7019 6.69768 20.0323V13.5914C6.68426 13.0136 7.14129 12.5341 7.71907 12.5198H12.8372Z" fill="black"/>
		<path opacity="0.2" d="M12.8372 12.5198V20.9868C12.833 21.5491 12.3782 22.0039 11.8158 22.0082H6.99349C6.79812 21.3677 6.69843 20.7019 6.69768 20.0323V13.5914C6.68426 13.0136 7.14129 12.5341 7.71907 12.5198H12.8372Z" fill="black"/>
		<path opacity="0.2" d="M12.2791 12.5198V20.9868C12.2748 21.5491 11.82 22.0039 11.2577 22.0082H6.99349C6.79812 21.3677 6.69843 20.7019 6.69768 20.0323V13.5914C6.68426 13.0136 7.14129 12.5341 7.71907 12.5198H12.2791Z" fill="black"/>
		<path opacity="0.1" d="M13.3954 9.63418V11.3923C13.3005 11.3979 13.2112 11.4035 13.1163 11.4035C13.0214 11.4035 12.9321 11.3979 12.8372 11.3923C12.6488 11.3798 12.462 11.3499 12.2791 11.303C11.1489 11.0354 10.2151 10.2427 9.76748 9.17093C9.69045 8.99094 9.63066 8.80405 9.58887 8.61279H12.374C12.9372 8.61493 13.3932 9.07096 13.3954 9.63418Z" fill="black"/>
		<path opacity="0.2" d="M12.8372 10.1924V11.3924C12.6488 11.3799 12.462 11.35 12.2791 11.3031C11.1488 11.0355 10.2151 10.2428 9.76746 9.17102H11.8158C12.379 9.17315 12.8351 9.6292 12.8372 10.1924Z" fill="black"/>
		<path opacity="0.2" d="M12.8372 10.1924V11.3924C12.6488 11.3799 12.462 11.35 12.2791 11.3031C11.1488 11.0355 10.2151 10.2428 9.76746 9.17102H11.8158C12.379 9.17315 12.8351 9.6292 12.8372 10.1924Z" fill="black"/>
		<path opacity="0.2" d="M12.2791 10.1924V11.3031C11.1488 11.0355 10.2151 10.2428 9.76746 9.17102H11.2577C11.8209 9.17316 12.2769 9.62921 12.2791 10.1924Z" fill="black"/>
		<path d="M1.02307 9.17102H11.256C11.821 9.17102 12.2791 9.62907 12.2791 10.1941V20.427C12.2791 20.992 11.821 21.4501 11.256 21.4501H1.02307C0.458037 21.4501 0 20.992 0 20.427V10.1941C0 9.62907 0.458048 9.17102 1.02307 9.17102Z" fill="url(#paint0_linear_306_3890)"/>
		<path d="M8.83195 13.0657H6.78636V18.6359H5.48311V13.0657H3.44702V11.9851H8.83195V13.0657Z" fill="white"/>
		</g>
		<path d="M18.9629 21.3335C18.9629 17.7334 21.8813 14.8149 25.4814 14.8149C29.0815 14.8149 31.9999 17.7334 31.9999 21.3335C31.9999 24.9335 29.0815 27.852 25.4814 27.852C21.8813 27.852 18.9629 24.9335 18.9629 21.3335Z" fill="#50CC03"/>
		<defs>
		<linearGradient id="paint0_linear_306_3890" x1="2.13312" y1="8.37161" x2="10.146" y2="22.2495" gradientUnits="userSpaceOnUse">
		<stop stop-color="#5A62C3"/>
		<stop offset="0.5" stop-color="#4D55BD"/>
		<stop offset="1" stop-color="#3940AB"/>
		</linearGradient>
		<clipPath id="clip0_306_3890">
		<rect width="24" height="22.3256" fill="white" transform="translate(0 4.14771)"/>
		</clipPath>
		</defs>
	</symbol>
	
	<symbol id="teams_away" width="24" height="24" viewBox="0 0 32 32" fill="none">
		<g clip-path="url(#clip0_306_3894)">
		<path d="M16.7403 12.5198H22.9395C23.5252 12.5198 24 12.9946 24 13.5802V19.2269C24 21.3795 22.255 23.1244 20.1025 23.1244H20.0841C17.9316 23.1247 16.1863 21.38 16.186 19.2275C16.186 19.2273 16.186 19.2271 16.186 19.2269V13.074C16.186 12.7679 16.4342 12.5198 16.7403 12.5198Z" fill="#5059C9"/>
		<path d="M20.9302 11.4035C22.3173 11.4035 23.4418 10.279 23.4418 8.89188C23.4418 7.50474 22.3173 6.38025 20.9302 6.38025C19.5431 6.38025 18.4186 7.50474 18.4186 8.89188C18.4186 10.279 19.5431 11.4035 20.9302 11.4035Z" fill="#5059C9"/>
		<path d="M13.1163 11.4035C15.12 11.4035 16.7442 9.77926 16.7442 7.77562C16.7442 5.77198 15.12 4.14771 13.1163 4.14771C11.1127 4.14771 9.4884 5.77198 9.4884 7.77562C9.4884 9.77926 11.1127 11.4035 13.1163 11.4035Z" fill="#7B83EB"/>
		<path d="M17.9537 12.5198H7.72073C7.14202 12.5341 6.68423 13.0144 6.69766 13.5931V20.0335C6.61685 23.5063 9.36442 26.3883 12.8372 26.4733C16.31 26.3883 19.0575 23.5063 18.9767 20.0335V13.5931C18.9901 13.0144 18.5324 12.5341 17.9537 12.5198Z" fill="#7B83EB"/>
		<path opacity="0.1" d="M13.3954 12.5198V21.5449C13.3926 21.9588 13.1418 22.3306 12.7591 22.4882C12.6372 22.5397 12.5063 22.5663 12.374 22.5663H7.18885C7.11629 22.3821 7.04931 22.1979 6.99349 22.0082C6.79812 21.3677 6.69843 20.7019 6.69768 20.0323V13.5914C6.68426 13.0136 7.14129 12.5341 7.71907 12.5198H13.3954Z" fill="black"/>
		<path opacity="0.2" d="M12.8372 12.5198V22.103C12.8372 22.2353 12.8106 22.3663 12.7591 22.4882C12.6015 22.8709 12.2297 23.1217 11.8158 23.1244H7.45117C7.35629 22.9402 7.26699 22.7561 7.18885 22.5663C7.1107 22.3765 7.04931 22.1979 6.99349 22.0082C6.79812 21.3677 6.69843 20.7019 6.69768 20.0323V13.5914C6.68426 13.0136 7.14129 12.5341 7.71907 12.5198H12.8372Z" fill="black"/>
		<path opacity="0.2" d="M12.8372 12.5198V20.9868C12.833 21.5491 12.3782 22.0039 11.8158 22.0082H6.99349C6.79812 21.3677 6.69843 20.7019 6.69768 20.0323V13.5914C6.68426 13.0136 7.14129 12.5341 7.71907 12.5198H12.8372Z" fill="black"/>
		<path opacity="0.2" d="M12.2791 12.5198V20.9868C12.2748 21.5491 11.82 22.0039 11.2577 22.0082H6.99349C6.79812 21.3677 6.69843 20.7019 6.69768 20.0323V13.5914C6.68426 13.0136 7.14129 12.5341 7.71907 12.5198H12.2791Z" fill="black"/>
		<path opacity="0.1" d="M13.3954 9.63418V11.3923C13.3005 11.3979 13.2112 11.4035 13.1163 11.4035C13.0214 11.4035 12.9321 11.3979 12.8372 11.3923C12.6488 11.3798 12.462 11.3499 12.2791 11.303C11.1489 11.0354 10.2151 10.2427 9.76748 9.17093C9.69045 8.99094 9.63066 8.80405 9.58887 8.61279H12.374C12.9372 8.61493 13.3932 9.07096 13.3954 9.63418Z" fill="black"/>
		<path opacity="0.2" d="M12.8372 10.1924V11.3924C12.6488 11.3799 12.462 11.35 12.2791 11.3031C11.1488 11.0355 10.2151 10.2428 9.76746 9.17102H11.8158C12.379 9.17315 12.8351 9.6292 12.8372 10.1924Z" fill="black"/>
		<path opacity="0.2" d="M12.8372 10.1924V11.3924C12.6488 11.3799 12.462 11.35 12.2791 11.3031C11.1488 11.0355 10.2151 10.2428 9.76746 9.17102H11.8158C12.379 9.17315 12.8351 9.6292 12.8372 10.1924Z" fill="black"/>
		<path opacity="0.2" d="M12.2791 10.1924V11.3031C11.1488 11.0355 10.2151 10.2428 9.76746 9.17102H11.2577C11.8209 9.17316 12.2769 9.62921 12.2791 10.1924Z" fill="black"/>
		<path d="M1.02307 9.17102H11.256C11.821 9.17102 12.2791 9.62907 12.2791 10.1941V20.427C12.2791 20.992 11.821 21.4501 11.256 21.4501H1.02307C0.458037 21.4501 0 20.992 0 20.427V10.1941C0 9.62907 0.458048 9.17102 1.02307 9.17102Z" fill="url(#paint0_linear_306_3894)"/>
		<path d="M8.83195 13.0657H6.78636V18.6359H5.48311V13.0657H3.44702V11.9851H8.83195V13.0657Z" fill="white"/>
		</g>
		<path d="M18.9629 21.3335C18.9629 17.7334 21.8813 14.8149 25.4814 14.8149C29.0815 14.8149 31.9999 17.7334 31.9999 21.3335C31.9999 24.9335 29.0815 27.852 25.4814 27.852C21.8813 27.852 18.9629 24.9335 18.9629 21.3335Z" fill="#FFCC17"/>
		<defs>
		<linearGradient id="paint0_linear_306_3894" x1="2.13312" y1="8.37161" x2="10.146" y2="22.2495" gradientUnits="userSpaceOnUse">
		<stop stop-color="#5A62C3"/>
		<stop offset="0.5" stop-color="#4D55BD"/>
		<stop offset="1" stop-color="#3940AB"/>
		</linearGradient>
		<clipPath id="clip0_306_3894">
		<rect width="24" height="22.3256" fill="white" transform="translate(0 4.14771)"/>
		</clipPath>
		</defs>
	</symbol>
	
	<symbol id="teams_busy" width="24" height="24" viewBox="0 0 32 32" fill="none">
		<g clip-path="url(#clip0_306_3886)">
		<path d="M16.7403 12.5198H22.9395C23.5252 12.5198 24 12.9946 24 13.5802V19.2269C24 21.3795 22.255 23.1244 20.1025 23.1244H20.0841C17.9316 23.1247 16.1863 21.38 16.186 19.2275C16.186 19.2273 16.186 19.2271 16.186 19.2269V13.074C16.186 12.7679 16.4342 12.5198 16.7403 12.5198Z" fill="#5059C9"/>
		<path d="M20.9302 11.4035C22.3173 11.4035 23.4418 10.279 23.4418 8.89188C23.4418 7.50474 22.3173 6.38025 20.9302 6.38025C19.5431 6.38025 18.4186 7.50474 18.4186 8.89188C18.4186 10.279 19.5431 11.4035 20.9302 11.4035Z" fill="#5059C9"/>
		<path d="M13.1163 11.4035C15.12 11.4035 16.7442 9.77926 16.7442 7.77562C16.7442 5.77198 15.12 4.14771 13.1163 4.14771C11.1127 4.14771 9.4884 5.77198 9.4884 7.77562C9.4884 9.77926 11.1127 11.4035 13.1163 11.4035Z" fill="#7B83EB"/>
		<path d="M17.9537 12.5198H7.72073C7.14202 12.5341 6.68423 13.0144 6.69766 13.5931V20.0335C6.61685 23.5063 9.36442 26.3883 12.8372 26.4733C16.31 26.3883 19.0575 23.5063 18.9767 20.0335V13.5931C18.9901 13.0144 18.5324 12.5341 17.9537 12.5198Z" fill="#7B83EB"/>
		<path opacity="0.1" d="M13.3954 12.5198V21.5449C13.3926 21.9588 13.1418 22.3306 12.7591 22.4882C12.6372 22.5397 12.5063 22.5663 12.374 22.5663H7.18885C7.11629 22.3821 7.04931 22.1979 6.99349 22.0082C6.79812 21.3677 6.69843 20.7019 6.69768 20.0323V13.5914C6.68426 13.0136 7.14129 12.5341 7.71907 12.5198H13.3954Z" fill="black"/>
		<path opacity="0.2" d="M12.8372 12.5198V22.103C12.8372 22.2353 12.8106 22.3663 12.7591 22.4882C12.6015 22.8709 12.2297 23.1217 11.8158 23.1244H7.45117C7.35629 22.9402 7.26699 22.7561 7.18885 22.5663C7.1107 22.3765 7.04931 22.1979 6.99349 22.0082C6.79812 21.3677 6.69843 20.7019 6.69768 20.0323V13.5914C6.68426 13.0136 7.14129 12.5341 7.71907 12.5198H12.8372Z" fill="black"/>
		<path opacity="0.2" d="M12.8372 12.5198V20.9868C12.833 21.5491 12.3782 22.0039 11.8158 22.0082H6.99349C6.79812 21.3677 6.69843 20.7019 6.69768 20.0323V13.5914C6.68426 13.0136 7.14129 12.5341 7.71907 12.5198H12.8372Z" fill="black"/>
		<path opacity="0.2" d="M12.2791 12.5198V20.9868C12.2748 21.5491 11.82 22.0039 11.2577 22.0082H6.99349C6.79812 21.3677 6.69843 20.7019 6.69768 20.0323V13.5914C6.68426 13.0136 7.14129 12.5341 7.71907 12.5198H12.2791Z" fill="black"/>
		<path opacity="0.1" d="M13.3954 9.63418V11.3923C13.3005 11.3979 13.2112 11.4035 13.1163 11.4035C13.0214 11.4035 12.9321 11.3979 12.8372 11.3923C12.6488 11.3798 12.462 11.3499 12.2791 11.303C11.1489 11.0354 10.2151 10.2427 9.76748 9.17093C9.69045 8.99094 9.63066 8.80405 9.58887 8.61279H12.374C12.9372 8.61493 13.3932 9.07096 13.3954 9.63418Z" fill="black"/>
		<path opacity="0.2" d="M12.8372 10.1924V11.3924C12.6488 11.3799 12.462 11.35 12.2791 11.3031C11.1488 11.0355 10.2151 10.2428 9.76746 9.17102H11.8158C12.379 9.17315 12.8351 9.6292 12.8372 10.1924Z" fill="black"/>
		<path opacity="0.2" d="M12.8372 10.1924V11.3924C12.6488 11.3799 12.462 11.35 12.2791 11.3031C11.1488 11.0355 10.2151 10.2428 9.76746 9.17102H11.8158C12.379 9.17315 12.8351 9.6292 12.8372 10.1924Z" fill="black"/>
		<path opacity="0.2" d="M12.2791 10.1924V11.3031C11.1488 11.0355 10.2151 10.2428 9.76746 9.17102H11.2577C11.8209 9.17316 12.2769 9.62921 12.2791 10.1924Z" fill="black"/>
		<path d="M1.02307 9.17102H11.256C11.821 9.17102 12.2791 9.62907 12.2791 10.1941V20.427C12.2791 20.992 11.821 21.4501 11.256 21.4501H1.02307C0.458037 21.4501 0 20.992 0 20.427V10.1941C0 9.62907 0.458048 9.17102 1.02307 9.17102Z" fill="url(#paint0_linear_306_3886)"/>
		<path d="M8.83195 13.0657H6.78636V18.6359H5.48311V13.0657H3.44702V11.9851H8.83195V13.0657Z" fill="white"/>
		</g>
		<path d="M18.9629 21.3335C18.9629 17.7334 21.8813 14.8149 25.4814 14.8149C29.0815 14.8149 31.9999 17.7334 31.9999 21.3335C31.9999 24.9335 29.0815 27.852 25.4814 27.852C21.8813 27.852 18.9629 24.9335 18.9629 21.3335Z" fill="#FF0000"/>
		<defs>
		<linearGradient id="paint0_linear_306_3886" x1="2.13312" y1="8.37161" x2="10.146" y2="22.2495" gradientUnits="userSpaceOnUse">
		<stop stop-color="#5A62C3"/>
		<stop offset="0.5" stop-color="#4D55BD"/>
		<stop offset="1" stop-color="#3940AB"/>
		</linearGradient>
		<clipPath id="clip0_306_3886">
		<rect width="24" height="22.3256" fill="white" transform="translate(0 4.14771)"/>
		</clipPath>
		</defs>
	</symbol>
	
	<symbol id="teams_offline" width="24" height="24" viewBox="0 0 32 32" fill="none">
		<g clip-path="url(#clip0_306_3898)">
		<path d="M16.7403 12.5198H22.9395C23.5252 12.5198 24 12.9946 24 13.5802V19.2269C24 21.3795 22.255 23.1244 20.1025 23.1244H20.0841C17.9316 23.1247 16.1863 21.38 16.186 19.2275C16.186 19.2273 16.186 19.2271 16.186 19.2269V13.074C16.186 12.7679 16.4342 12.5198 16.7403 12.5198Z" fill="#5059C9"/>
		<path d="M20.9302 11.4035C22.3173 11.4035 23.4418 10.279 23.4418 8.89188C23.4418 7.50474 22.3173 6.38025 20.9302 6.38025C19.5431 6.38025 18.4186 7.50474 18.4186 8.89188C18.4186 10.279 19.5431 11.4035 20.9302 11.4035Z" fill="#5059C9"/>
		<path d="M13.1163 11.4035C15.12 11.4035 16.7442 9.77926 16.7442 7.77562C16.7442 5.77198 15.12 4.14771 13.1163 4.14771C11.1127 4.14771 9.4884 5.77198 9.4884 7.77562C9.4884 9.77926 11.1127 11.4035 13.1163 11.4035Z" fill="#7B83EB"/>
		<path d="M17.9537 12.5198H7.72073C7.14202 12.5341 6.68423 13.0144 6.69766 13.5931V20.0335C6.61685 23.5063 9.36442 26.3883 12.8372 26.4733C16.31 26.3883 19.0575 23.5063 18.9767 20.0335V13.5931C18.9901 13.0144 18.5324 12.5341 17.9537 12.5198Z" fill="#7B83EB"/>
		<path opacity="0.1" d="M13.3954 12.5198V21.5449C13.3926 21.9588 13.1418 22.3306 12.7591 22.4882C12.6372 22.5397 12.5063 22.5663 12.374 22.5663H7.18885C7.11629 22.3821 7.04931 22.1979 6.99349 22.0082C6.79812 21.3677 6.69843 20.7019 6.69768 20.0323V13.5914C6.68426 13.0136 7.14129 12.5341 7.71907 12.5198H13.3954Z" fill="black"/>
		<path opacity="0.2" d="M12.8372 12.5198V22.103C12.8372 22.2353 12.8106 22.3663 12.7591 22.4882C12.6015 22.8709 12.2297 23.1217 11.8158 23.1244H7.45117C7.35629 22.9402 7.26699 22.7561 7.18885 22.5663C7.1107 22.3765 7.04931 22.1979 6.99349 22.0082C6.79812 21.3677 6.69843 20.7019 6.69768 20.0323V13.5914C6.68426 13.0136 7.14129 12.5341 7.71907 12.5198H12.8372Z" fill="black"/>
		<path opacity="0.2" d="M12.8372 12.5198V20.9868C12.833 21.5491 12.3782 22.0039 11.8158 22.0082H6.99349C6.79812 21.3677 6.69843 20.7019 6.69768 20.0323V13.5914C6.68426 13.0136 7.14129 12.5341 7.71907 12.5198H12.8372Z" fill="black"/>
		<path opacity="0.2" d="M12.2791 12.5198V20.9868C12.2748 21.5491 11.82 22.0039 11.2577 22.0082H6.99349C6.79812 21.3677 6.69843 20.7019 6.69768 20.0323V13.5914C6.68426 13.0136 7.14129 12.5341 7.71907 12.5198H12.2791Z" fill="black"/>
		<path opacity="0.1" d="M13.3954 9.63418V11.3923C13.3005 11.3979 13.2112 11.4035 13.1163 11.4035C13.0214 11.4035 12.9321 11.3979 12.8372 11.3923C12.6488 11.3798 12.462 11.3499 12.2791 11.303C11.1489 11.0354 10.2151 10.2427 9.76748 9.17093C9.69045 8.99094 9.63066 8.80405 9.58887 8.61279H12.374C12.9372 8.61493 13.3932 9.07096 13.3954 9.63418Z" fill="black"/>
		<path opacity="0.2" d="M12.8372 10.1924V11.3924C12.6488 11.3799 12.462 11.35 12.2791 11.3031C11.1488 11.0355 10.2151 10.2428 9.76746 9.17102H11.8158C12.379 9.17315 12.8351 9.6292 12.8372 10.1924Z" fill="black"/>
		<path opacity="0.2" d="M12.8372 10.1924V11.3924C12.6488 11.3799 12.462 11.35 12.2791 11.3031C11.1488 11.0355 10.2151 10.2428 9.76746 9.17102H11.8158C12.379 9.17315 12.8351 9.6292 12.8372 10.1924Z" fill="black"/>
		<path opacity="0.2" d="M12.2791 10.1924V11.3031C11.1488 11.0355 10.2151 10.2428 9.76746 9.17102H11.2577C11.8209 9.17316 12.2769 9.62921 12.2791 10.1924Z" fill="black"/>
		<path d="M1.02307 9.17102H11.256C11.821 9.17102 12.2791 9.62907 12.2791 10.1941V20.427C12.2791 20.992 11.821 21.4501 11.256 21.4501H1.02307C0.458037 21.4501 0 20.992 0 20.427V10.1941C0 9.62907 0.458048 9.17102 1.02307 9.17102Z" fill="url(#paint0_linear_306_3898)"/>
		<path d="M8.83195 13.0657H6.78636V18.6359H5.48311V13.0657H3.44702V11.9851H8.83195V13.0657Z" fill="white"/>
		</g>
		<path d="M19.1503 22.1039C19.1503 18.6323 21.9645 15.8181 25.436 15.8181C28.9076 15.8181 31.7218 18.6323 31.7218 22.1039C31.7218 25.5754 28.9076 28.3896 25.436 28.3896C21.9645 28.3896 19.1503 25.5754 19.1503 22.1039Z" fill="white"/>
		<path fill-rule="evenodd" clip-rule="evenodd" d="M19.4082 22.1051C19.4082 25.0332 21.7819 27.4069 24.71 27.4069C27.6382 27.4069 30.0119 25.0332 30.0119 22.1051C30.0119 19.177 27.6382 16.8032 24.71 16.8032C21.7819 16.8032 19.4082 19.177 19.4082 22.1051ZM24.71 14.8151C20.6839 14.8151 17.42 18.0789 17.42 22.1051C17.42 26.1312 20.6839 29.3951 24.71 29.3951C28.7362 29.3951 32 26.1312 32 22.1051C32 18.0789 28.7362 14.8151 24.71 14.8151Z" fill="#767676"/>
		<path fill-rule="evenodd" clip-rule="evenodd" d="M22.5891 19.9826C22.9238 19.6478 23.4665 19.6478 23.8013 19.9826L26.8318 23.013C27.1665 23.3478 27.1665 23.8905 26.8318 24.2252C26.497 24.56 25.9543 24.56 25.6196 24.2252L22.5891 21.1948C22.2544 20.86 22.2544 20.3173 22.5891 19.9826Z" fill="#767676"/>
		<path fill-rule="evenodd" clip-rule="evenodd" d="M26.831 19.9828C27.1658 20.3175 27.1658 20.8602 26.831 21.195L23.8006 24.2254C23.4658 24.5602 22.9231 24.5602 22.5884 24.2254C22.2536 23.8907 22.2536 23.348 22.5884 23.0132L25.6188 19.9828C25.9536 19.648 26.4963 19.648 26.831 19.9828Z" fill="#767676"/>
		<defs>
		<linearGradient id="paint0_linear_306_3898" x1="2.13312" y1="8.37161" x2="10.146" y2="22.2495" gradientUnits="userSpaceOnUse">
		<stop stop-color="#5A62C3"/>
		<stop offset="0.5" stop-color="#4D55BD"/>
		<stop offset="1" stop-color="#3940AB"/>
		</linearGradient>
		<clipPath id="clip0_306_3898">
		<rect width="24" height="22.3256" fill="white" transform="translate(0 4.14771)"/>
		</clipPath>
		</defs>
	</symbol>
</svg>
