<?xml version="1.0" encoding="UTF-8"?>
<svg version="1.1"
	xmlns="http://www.w3.org/2000/svg"
	xmlns:xlink="http://www.w3.org/1999/xlink"
	width="0" height="0" viewBox="0 0 0 0">
	<symbol id="clock" width="12" height="12" viewBox="0 0 12 12" fill="none">
		<path fill-rule="evenodd" clip-rule="evenodd" d="M6 0C2.68629 0 0 2.68629 0 6C0 9.31371 2.68629 12 6 12C9.31371 12 12 9.31371 12 6C12 2.68629 9.31371 0 6 0ZM8.28909 8.88386C8.6073 9.14903 9.08022 9.10604 9.3454 8.78783C9.61057 8.46962 9.56758 7.9967 9.24937 7.73153L6.75 5.64872V2.30769C6.75 1.89348 6.41421 1.55769 6 1.55769C5.58579 1.55769 5.25 1.89348 5.25 2.30769V6V6.35128L5.51986 6.57617L8.28909 8.88386Z" fill="currentColor"/>
	</symbol>
	<symbol id="copy" width="12" height="16" viewBox="0 0 12 16" fill="none">
		<path fill-rule="evenodd" clip-rule="evenodd" d="M3 3H2C0.89543 3 0 3.89543 0 5V14C0 15.1046 0.89543 16 2 16H8L12 12V5C12 3.89543 11.1046 3 10 3H8.98865C9 0 3 0 3 3ZM8 3C8 1.2 4 1.2 4 3H8ZM9 11C7.89543 11 7 11.8954 7 13V15H2C1.44772 15 1 14.5523 1 14V5C1 4.44772 1.44772 4 2 4H10C10.5523 4 11 4.44772 11 5V11H9ZM9 12H10.7L8 14.7V13C8 12.4477 8.44771 12 9 12Z" fill="currentColor"/>
	</symbol>
	<symbol id="error" width="12" height="12" viewBox="0 0 12 12" fill="none">
		<path fill-rule="evenodd" clip-rule="evenodd" d="M3.606 0.138L0.21 3.198C0.078 3.294 0.006 3.45 0.006 3.618V8.382C0.006 8.526 0.066 8.67 0.186 8.778L3.582 11.838C3.678 11.934 3.81 11.994 3.954 11.994H8.034C8.166 11.994 8.298 11.946 8.394 11.85L11.79 8.802C11.91 8.706 11.994 8.55 11.994 8.382V3.618C11.994 3.462 11.934 3.318 11.814 3.222L8.418 0.162C8.322 0.066 8.19 0.006 8.034 0.006H3.954C3.834 0.006 3.702 0.054 3.606 0.138Z" fill="currentColor"/>
		<path d="M7 9C7 9.55228 6.55228 10 6 10C5.44772 10 5 9.55228 5 9C5 8.44772 5.44772 8 6 8C6.55228 8 7 8.44772 7 9Z" fill="white"/>
		<path d="M6 2C6.55228 2 7 2.44772 7 3V6C7 6.55228 6.55228 7 6 7C5.44772 7 5 6.55228 5 6V3C5 2.44772 5.44772 2 6 2Z" fill="white"/>
	</symbol>
	<symbol id="exception" width="10" height="14" viewBox="0 0 10 14" fill="none">
		<path fill-rule="evenodd" clip-rule="evenodd" d="M5 5.36257L4.72656 0L0 8.63743H4.53125V14L10 5.36257H5Z" fill="currentColor"/>
	</symbol>
	<symbol id="expand" x="2" y="1" width="5" height="8" viewBox="0 0 5 8" fill="none">
		<path d="M0.967758 0L0 0.960013L3.14516 4L0 7.03999L0.967758 8L5 4L0.967728 0H0.967758Z" fill="currentColor"/>
	</symbol>
	<symbol id="expanded" x="0" y="3" width="8" height="5" viewBox="0 0 8 5" fill="none">
		<path d="M8 0.967758L7.03999 0L4 3.14516L0.960013 0L0 0.967758L4 5L8 0.967728V0.967758Z" fill="currentColor"/>
	</symbol>
	<symbol id="info" width="12" height="12" viewBox="0 0 12 12" fill="none">
		<path fill-rule="evenodd" clip-rule="evenodd" d="M0 6C0 2.65714 2.65714 0 6 0C9.34286 0 12 2.65714 12 6C12 9.34286 9.34286 12 6 12C2.65714 12 0 9.34286 0 6ZM5.60285 4.85896L5.46638 4.87042C5.14426 4.9095 4.84819 5.02462 4.54897 5.14096L4.54861 5.1411C4.50994 5.15614 4.47121 5.1712 4.43237 5.18612C4.40333 5.19785 4.38027 5.22088 4.36856 5.24992C4.34617 5.3273 4.32833 5.40502 4.30925 5.4881L4.30923 5.48819C4.3017 5.52098 4.29398 5.55461 4.28571 5.58938C4.3051 5.58399 4.32245 5.57989 4.33832 5.57614C4.36248 5.57043 4.38322 5.56553 4.40247 5.55814C4.60495 5.47604 4.82697 5.45483 5.04134 5.49705C5.1683 5.5208 5.2552 5.59414 5.26878 5.72448C5.28911 5.8455 5.29047 5.96896 5.27285 6.09043C5.21535 6.35402 5.14642 6.61684 5.07808 6.87736L5.07802 6.87761C5.05679 6.95853 5.03562 7.03923 5.01487 7.11967C4.98764 7.22537 4.95755 7.33033 4.92746 7.43528C4.83831 7.74625 4.7492 8.05708 4.73448 8.38653C4.70609 8.76244 4.92407 9.11355 5.27354 9.25487C5.5369 9.36426 5.82761 9.38965 6.10591 9.32751C6.26681 9.29188 6.42466 9.24179 6.5816 9.18739L7.05169 9.02132C7.0743 9.01229 7.09221 8.99435 7.10127 8.97174C7.12411 8.88996 7.14432 8.80703 7.16612 8.71757L7.16616 8.71741L7.18883 8.62481C7.13705 8.64399 7.08394 8.65939 7.02996 8.67099C6.861 8.70238 6.68987 8.72076 6.51806 8.72598C6.27161 8.72121 6.17044 8.60242 6.16503 8.35393C6.16144 8.29623 6.16508 8.23829 6.1759 8.18148C6.25149 7.85424 6.32957 7.52767 6.41014 7.20179C6.44279 7.07062 6.48045 6.94073 6.51812 6.81083L6.51815 6.81072C6.60895 6.49757 6.69977 6.18434 6.72043 5.85279C6.74759 5.43321 6.5378 5.07407 6.14062 4.93827C5.96735 4.8788 5.78516 4.85206 5.60285 4.85896ZM6.45312 4.125C7.00541 4.125 7.45312 3.67728 7.45312 3.125C7.45312 2.57272 7.00541 2.125 6.45312 2.125C5.90084 2.125 5.45312 2.57272 5.45312 3.125C5.45312 3.67728 5.90084 4.125 6.45312 4.125Z" fill="currentColor"/>
	</symbol>
	<symbol id="warning" width="14" height="12" viewBox="0 0 14 12" fill="none">
		<path fill-rule="evenodd" clip-rule="evenodd" d="M6.11956 0.635152C6.49713 -0.0660478 7.50293 -0.0660464 7.8805 0.635154L13.2063 10.5259C13.565 11.1921 13.0825 12 12.3258 12H1.67425C0.917571 12 0.435036 11.1921 0.793775 10.5259L6.11956 0.635152ZM8.00003 9C8.00003 9.55229 7.55232 10 7.00003 10C6.44775 10 6.00003 9.55229 6.00003 9C6.00003 8.44771 6.44775 8 7.00003 8C7.55232 8 8.00003 8.44771 8.00003 9ZM8.00003 4C8.00003 3.44772 7.55232 3 7.00003 3C6.44775 3 6.00003 3.44772 6.00003 4V6C6.00003 6.55228 6.44775 7 7.00003 7C7.55232 7 8.00003 6.55228 8.00003 6V4Z" fill="currentColor"/>
	</symbol>
	<symbol id="donemark" width="16" height="16" viewBox="1 0 17 16" fill="none">
		<path d="M6.3002 12.0001L2.7002 8.4001L4.0002 7.1001L6.3002 9.4001L12.0002 3.6001L13.3002 4.9001L6.3002 12.0001Z" fill="#47A824"/>
	</symbol>
</svg>
